<svg preserveAspectRatio="none" width="100%" height="100%" overflow="visible" style="display: block;" viewBox="0 0 51.4073 13.7908" fill="none" xmlns="http://www.w3.org/2000/svg">
<g id="Vector">
<path d="M3.6084 0C5.98427 7.67527e-05 7.2167 1.23266 7.2168 3.38965V4.69922H4.92871V3.25488C4.92864 2.29199 4.44381 1.92578 3.67383 1.92578C2.90405 1.92589 2.41999 2.29214 2.41992 3.25488V10.5361C2.42006 11.4987 2.90411 11.8456 3.67383 11.8457C4.44375 11.8457 4.92857 11.4989 4.92871 10.5361V8.60938H7.2168V10.4014C7.21661 12.5582 5.98419 13.7909 3.6084 13.791C1.23246 13.791 0.000184995 12.5583 0 10.4014V3.38965C9.89078e-05 1.2326 1.23238 0 3.6084 0ZM11.1045 0.154297V5.93262H13.8555V0.154297H16.3193V13.6367H13.8555V7.8584H11.1045V13.6367H8.68457V0.154297H11.1045ZM24.6738 0.154297V2.08008H20.4941V5.83594H23.8164V7.76172H20.4941V11.7109H24.6738V13.6367H18.0742V0.154297H24.6738ZM29.8262 0.154297C32.3341 0.154351 33.412 1.1749 33.4121 3.25488V4.31445C33.4121 5.70122 32.9062 6.60681 31.8281 7.0498C33.0379 7.49282 33.4345 8.51318 33.4346 9.91895V12C33.4346 12.6546 33.4563 13.1361 33.6982 13.6367H31.2344C31.1024 13.29 31.0137 13.0782 31.0137 11.9805V9.86133C31.0136 8.60956 30.5297 8.14746 29.4297 8.14746H28.5938V13.6367H26.1738V0.154297H29.8262ZM38.6777 0.154297C41.1858 0.154297 42.2636 1.17485 42.2637 3.25488V4.31445C42.2637 5.70122 41.7577 6.60681 40.6797 7.0498C41.8896 7.49279 42.2861 8.51312 42.2861 9.91895V12C42.2861 12.6546 42.3079 13.1361 42.5498 13.6367H40.0859C39.9539 13.2901 39.8662 13.0781 39.8662 11.9805V9.86133C39.8661 8.60966 39.382 8.14753 38.2822 8.14746H37.4463V13.6367H35.0254V0.154297H38.6777ZM45.4014 0.154297L47.249 6.29785L49.0977 0.154297H51.4072L48.3496 9.16797V13.6367H45.9287V9.16797L42.8711 0.154297H45.4014ZM28.5938 2.08008V6.22168H29.54C30.442 6.22166 30.9922 5.87447 30.9922 4.7959V3.4668C30.9921 2.50386 30.6178 2.08008 29.7598 2.08008H28.5938ZM37.4463 2.08008V6.22168H38.3916C39.2936 6.22168 39.8438 5.87451 39.8438 4.7959V3.4668C39.8437 2.50398 39.4701 2.08018 38.6123 2.08008H37.4463Z" fill="url(#paint0_linear_783_2081)"/>
<path d="M3.6084 0C5.98427 7.67527e-05 7.2167 1.23266 7.2168 3.38965V4.69922H4.92871V3.25488C4.92864 2.29199 4.44381 1.92578 3.67383 1.92578C2.90405 1.92589 2.41999 2.29214 2.41992 3.25488V10.5361C2.42006 11.4987 2.90411 11.8456 3.67383 11.8457C4.44375 11.8457 4.92857 11.4989 4.92871 10.5361V8.60938H7.2168V10.4014C7.21661 12.5582 5.98419 13.7909 3.6084 13.791C1.23246 13.791 0.000184995 12.5583 0 10.4014V3.38965C9.89078e-05 1.2326 1.23238 0 3.6084 0ZM11.1045 0.154297V5.93262H13.8555V0.154297H16.3193V13.6367H13.8555V7.8584H11.1045V13.6367H8.68457V0.154297H11.1045ZM24.6738 0.154297V2.08008H20.4941V5.83594H23.8164V7.76172H20.4941V11.7109H24.6738V13.6367H18.0742V0.154297H24.6738ZM29.8262 0.154297C32.3341 0.154351 33.412 1.1749 33.4121 3.25488V4.31445C33.4121 5.70122 32.9062 6.60681 31.8281 7.0498C33.0379 7.49282 33.4345 8.51318 33.4346 9.91895V12C33.4346 12.6546 33.4563 13.1361 33.6982 13.6367H31.2344C31.1024 13.29 31.0137 13.0782 31.0137 11.9805V9.86133C31.0136 8.60956 30.5297 8.14746 29.4297 8.14746H28.5938V13.6367H26.1738V0.154297H29.8262ZM38.6777 0.154297C41.1858 0.154297 42.2636 1.17485 42.2637 3.25488V4.31445C42.2637 5.70122 41.7577 6.60681 40.6797 7.0498C41.8896 7.49279 42.2861 8.51312 42.2861 9.91895V12C42.2861 12.6546 42.3079 13.1361 42.5498 13.6367H40.0859C39.9539 13.2901 39.8662 13.0781 39.8662 11.9805V9.86133C39.8661 8.60966 39.382 8.14753 38.2822 8.14746H37.4463V13.6367H35.0254V0.154297H38.6777ZM45.4014 0.154297L47.249 6.29785L49.0977 0.154297H51.4072L48.3496 9.16797V13.6367H45.9287V9.16797L42.8711 0.154297H45.4014ZM28.5938 2.08008V6.22168H29.54C30.442 6.22166 30.9922 5.87447 30.9922 4.7959V3.4668C30.9921 2.50386 30.6178 2.08008 29.7598 2.08008H28.5938ZM37.4463 2.08008V6.22168H38.3916C39.2936 6.22168 39.8438 5.87451 39.8438 4.7959V3.4668C39.8437 2.50398 39.4701 2.08018 38.6123 2.08008H37.4463Z" stroke="var(--stroke-0, black)"/>
</g>
<defs>
<linearGradient id="paint0_linear_783_2081" x1="62.5854" y1="0.28692" x2="62.6134" y2="13.5042" gradientUnits="userSpaceOnUse">
<stop stop-color="#FC0162"/>
<stop offset="1" stop-color="#FC0139"/>
</linearGradient>
</defs>
</svg>
