<svg preserveAspectRatio="none" width="100%" height="100%" overflow="visible" style="display: block;" viewBox="0 0 5.61815 4.91847" fill="none" xmlns="http://www.w3.org/2000/svg">
<g id="Vector">
<path d="M3.28516 0C5.56474 -0.00365613 5.61816 1.25098 5.61816 1.25098V3.94629C5.60162 4.10836 5.5429 4.26478 5.44727 4.4043C5.35144 4.54378 5.22111 4.66295 5.06543 4.75195C4.30803 5.18377 3.29612 4.72554 3.20801 3.94629V2.14453L3.16797 2.10938H1.10937C0.924339 2.09469 0.745357 2.04356 0.585937 1.95996C0.42661 1.87638 0.290409 1.76279 0.188477 1.62695C-0.30192 0.960395 0.222049 0.0770168 1.10937 0H3.28516Z" fill="url(#paint0_linear_783_2101)"/>
<path d="M3.28516 0C5.56474 -0.00365613 5.61816 1.25098 5.61816 1.25098V3.94629C5.60162 4.10836 5.5429 4.26478 5.44727 4.4043C5.35144 4.54378 5.22111 4.66295 5.06543 4.75195C4.30803 5.18377 3.29612 4.72554 3.20801 3.94629V2.14453L3.16797 2.10938H1.10937C0.924339 2.09469 0.745357 2.04356 0.585937 1.95996C0.42661 1.87638 0.290409 1.76279 0.188477 1.62695C-0.30192 0.960395 0.222049 0.0770168 1.10937 0H3.28516Z" stroke="var(--stroke-0, black)"/>
</g>
<defs>
<linearGradient id="paint0_linear_783_2101" x1="0.739984" y1="4.6096" x2="5.7256" y2="-0.335365" gradientUnits="userSpaceOnUse">
<stop stop-color="#E000A1"/>
<stop offset="1" stop-color="#FF4D01"/>
</linearGradient>
</defs>
</svg>
