<svg preserveAspectRatio="none" width="100%" height="100%" overflow="visible" style="display: block;" viewBox="0 0 27 28.0003" fill="none" xmlns="http://www.w3.org/2000/svg">
<path id="instagram" d="M13.5013 0C9.83485 0 9.37472 0.0166254 7.93471 0.0845845C6.49751 0.152835 5.51649 0.388796 4.65811 0.735008C3.7702 1.09259 3.017 1.57093 2.26662 2.3494C1.51567 3.12757 1.05442 3.90867 0.708476 4.82917C0.373785 5.71964 0.14597 6.73728 0.081282 8.22713C0.0168751 9.72048 0 10.1979 0 14.0001C0 17.8024 0.0163129 18.2781 0.0815636 19.7714C0.147658 21.2618 0.375192 22.2792 0.708757 23.1694C1.05385 24.0902 1.51511 24.8713 2.26577 25.6494C3.01588 26.4282 3.76907 26.9077 4.65642 27.2653C5.51537 27.6115 6.49666 27.8475 7.93358 27.9157C9.3736 27.9837 9.83345 28.0003 13.4996 28.0003C17.1663 28.0003 17.625 27.9837 19.065 27.9157C20.5022 27.8475 21.4843 27.6115 22.3433 27.2653C23.2309 26.9077 23.983 26.4282 24.7331 25.6494C25.484 24.8713 25.9453 24.0902 26.2912 23.1697C26.6231 22.2792 26.8509 21.2616 26.9184 19.7717C26.9831 18.2784 27 17.8024 27 14.0001C27 10.1979 26.9831 9.72077 26.9184 8.22742C26.8509 6.73699 26.6231 5.71964 26.2912 4.82947C25.9453 3.90867 25.484 3.12757 24.7331 2.3494C23.9822 1.57064 23.2312 1.0923 22.3425 0.735008C21.4818 0.388796 20.5002 0.152835 19.063 0.0845845C17.623 0.0166254 17.1646 0 13.497 0H13.5013ZM12.2902 2.52294C12.6496 2.52236 13.0507 2.52294 13.5013 2.52294C17.1058 2.52294 17.533 2.53636 18.9564 2.60344C20.2727 2.66586 20.9871 2.89395 21.463 3.08557C22.093 3.33933 22.5421 3.64266 23.0144 4.13267C23.4869 4.62267 23.7794 5.08934 24.0246 5.74268C24.2094 6.23561 24.4296 6.97645 24.4895 8.34146C24.5542 9.81731 24.5683 10.2606 24.5683 13.9969C24.5683 17.7332 24.5542 18.1766 24.4895 19.6524C24.4293 21.0174 24.2094 21.7583 24.0246 22.2512C23.7799 22.9045 23.4869 23.3697 23.0144 23.8595C22.5419 24.3495 22.0933 24.6528 21.463 24.9065C20.9877 25.0991 20.2727 25.3266 18.9564 25.389C17.5333 25.4561 17.1058 25.4706 13.5013 25.4706C9.89645 25.4706 9.46922 25.4561 8.04608 25.389C6.72982 25.326 6.01544 25.0979 5.53928 24.9063C4.90927 24.6525 4.45926 24.3492 3.98676 23.8592C3.51426 23.3692 3.22175 22.9037 2.9765 22.25C2.79172 21.7571 2.5715 21.0163 2.51159 19.6512C2.4469 18.1754 2.43396 17.7321 2.43396 13.9934C2.43396 10.2548 2.4469 9.81381 2.51159 8.33796C2.57178 6.97295 2.79172 6.23211 2.9765 5.7386C3.22119 5.08526 3.51426 4.61859 3.98676 4.12858C4.45926 3.63858 4.90927 3.33524 5.53928 3.08091C6.01516 2.8884 6.72982 2.6609 8.04608 2.59819C9.29147 2.53986 9.7741 2.52236 12.2902 2.51944V2.52294ZM20.7075 4.84755C19.8131 4.84755 19.0875 5.59918 19.0875 6.52698C19.0875 7.45449 19.8131 8.207 20.7075 8.207C21.6019 8.207 22.3275 7.45449 22.3275 6.52698C22.3275 5.59947 21.6019 4.84697 20.7075 4.84697V4.84755ZM13.5013 6.81049C9.67257 6.81049 6.56838 10.0296 6.56838 14.0001C6.56838 17.9706 9.67257 21.1883 13.5013 21.1883C17.33 21.1883 20.433 17.9706 20.433 14.0001C20.433 10.0296 17.3297 6.81049 13.501 6.81049H13.5013ZM13.5013 9.33343C15.9864 9.33343 18.0013 11.4227 18.0013 14.0001C18.0013 16.5773 15.9864 18.6669 13.5013 18.6669C11.0158 18.6669 9.00122 16.5773 9.00122 14.0001C9.00122 11.4227 11.0158 9.33343 13.5013 9.33343V9.33343Z" fill="var(--fill-0, #C1C1C1)"/>
</svg>
