<svg preserveAspectRatio="none" width="100%" height="100%" overflow="visible" style="display: block;" viewBox="0 0 87.1146 72.6979" fill="none" xmlns="http://www.w3.org/2000/svg">
<path id="Vector" d="M12.1146 41.25V52.9583C12.1146 56 13.7812 58.8333 16.4479 60.2917L37.2812 71.6667C39.7812 73.0417 42.7812 73.0417 45.2812 71.6667L66.1146 60.2917C68.7812 58.8333 70.4479 56 70.4479 52.9583V41.25L45.2812 55C42.7812 56.375 39.7812 56.375 37.2812 55L12.1146 41.25ZM37.2812 1L2.15625 20.1667C-0.71875 21.75 -0.71875 25.9167 2.15625 27.5L37.2812 46.6667C39.7812 48.0417 42.7812 48.0417 45.2812 46.6667L78.7812 28.375V53C78.7812 55.2917 80.6562 57.1667 82.9479 57.1667C85.2396 57.1667 87.1146 55.2917 87.1146 53V26.2917C87.1146 24.75 86.2812 23.375 84.9479 22.625L45.2812 1C42.7812 -0.333333 39.7812 -0.333333 37.2812 1V1Z" fill="url(#paint0_linear_796_2187)"/>
<defs>
<linearGradient id="paint0_linear_796_2187" x1="-602.122" y1="0.716236" x2="-602.047" y2="71.9835" gradientUnits="userSpaceOnUse">
<stop stop-color="#FC0162"/>
<stop offset="1" stop-color="#FC0139"/>
</linearGradient>
</defs>
</svg>
