<svg preserveAspectRatio="none" width="100%" height="100%" overflow="visible" style="display: block;" viewBox="0 0 221.789 113.701" fill="none" xmlns="http://www.w3.org/2000/svg">
<g id="text">
<g id="Vector">
<path d="M12.8926 18.749C21.2134 18.7491 25.5282 22.6741 25.5283 29.543V33.7139H17.5156V29.1143C17.5156 26.0479 15.8204 24.882 13.124 24.8818C10.4274 24.8818 8.73242 26.0477 8.73242 29.1143V52.2969C8.73242 55.3634 10.4274 56.4678 13.124 56.4678C15.8204 56.4677 17.5156 55.3632 17.5156 52.2969V46.1641H25.5283V51.8672C25.5283 58.7362 21.2135 62.6621 12.8926 62.6621C4.57156 62.6621 0.256836 58.7362 0.256836 51.8672V29.543C0.256942 22.6741 4.57167 18.749 12.8926 18.749ZM39.1455 19.2393V37.6387H48.7764V19.2393H57.4053V62.1709H48.7764V43.7725H39.1455V62.1709H30.6699V19.2393H39.1455ZM86.6641 19.2393V25.373H72.0254V37.332H83.6592V43.4658H72.0254V56.0381H86.6641V62.1709H63.5508V19.2393H86.6641ZM104.705 19.2393C113.488 19.2393 117.264 22.4905 117.264 29.1143V32.4873C117.264 36.903 115.492 39.7857 111.717 41.1963C115.954 42.607 117.341 45.8571 117.341 50.334V56.958C117.341 59.0431 117.418 60.5764 118.266 62.1709H109.637C109.174 61.0671 108.866 60.3921 108.866 56.8965V50.1504C108.866 46.1639 107.171 44.6924 103.318 44.6924H100.391V62.1709H91.916V19.2393H104.705ZM135.705 19.2393C144.488 19.2393 148.264 22.4906 148.264 29.1143V32.4873C148.264 36.903 146.491 39.7857 142.716 41.1963C146.953 42.6069 148.341 45.8571 148.341 50.334V56.958C148.341 59.0431 148.417 60.5764 149.265 62.1709H140.636C140.174 61.0671 139.865 60.3921 139.865 56.8965V50.1504C139.865 46.1641 138.17 44.6925 134.318 44.6924H131.391V62.1709H122.915V19.2393H135.705ZM159.248 19.2393L165.721 38.8037L172.192 19.2393H180.282L169.572 47.9424V62.1709H161.098V47.9424L150.388 19.2393H159.248ZM100.391 25.373V38.5586H103.704C106.863 38.5586 108.789 37.4549 108.789 34.0205V29.7881C108.789 26.7219 107.479 25.3731 104.475 25.373H100.391ZM131.391 25.373V38.5586H134.703C137.862 38.5586 139.788 37.4549 139.788 34.0205V29.7881C139.788 26.7219 138.478 25.3731 135.474 25.373H131.391Z" fill="url(#paint0_linear_783_2133)"/>
<path d="M12.8926 18.749C21.2134 18.7491 25.5282 22.6741 25.5283 29.543V33.7139H17.5156V29.1143C17.5156 26.0479 15.8204 24.882 13.124 24.8818C10.4274 24.8818 8.73242 26.0477 8.73242 29.1143V52.2969C8.73242 55.3634 10.4274 56.4678 13.124 56.4678C15.8204 56.4677 17.5156 55.3632 17.5156 52.2969V46.1641H25.5283V51.8672C25.5283 58.7362 21.2135 62.6621 12.8926 62.6621C4.57156 62.6621 0.256836 58.7362 0.256836 51.8672V29.543C0.256942 22.6741 4.57167 18.749 12.8926 18.749ZM39.1455 19.2393V37.6387H48.7764V19.2393H57.4053V62.1709H48.7764V43.7725H39.1455V62.1709H30.6699V19.2393H39.1455ZM86.6641 19.2393V25.373H72.0254V37.332H83.6592V43.4658H72.0254V56.0381H86.6641V62.1709H63.5508V19.2393H86.6641ZM104.705 19.2393C113.488 19.2393 117.264 22.4905 117.264 29.1143V32.4873C117.264 36.903 115.492 39.7857 111.717 41.1963C115.954 42.607 117.341 45.8571 117.341 50.334V56.958C117.341 59.0431 117.418 60.5764 118.266 62.1709H109.637C109.174 61.0671 108.866 60.3921 108.866 56.8965V50.1504C108.866 46.1639 107.171 44.6924 103.318 44.6924H100.391V62.1709H91.916V19.2393H104.705ZM135.705 19.2393C144.488 19.2393 148.264 22.4906 148.264 29.1143V32.4873C148.264 36.903 146.491 39.7857 142.716 41.1963C146.953 42.6069 148.341 45.8571 148.341 50.334V56.958C148.341 59.0431 148.417 60.5764 149.265 62.1709H140.636C140.174 61.0671 139.865 60.3921 139.865 56.8965V50.1504C139.865 46.1641 138.17 44.6925 134.318 44.6924H131.391V62.1709H122.915V19.2393H135.705ZM159.248 19.2393L165.721 38.8037L172.192 19.2393H180.282L169.572 47.9424V62.1709H161.098V47.9424L150.388 19.2393H159.248ZM100.391 25.373V38.5586H103.704C106.863 38.5586 108.789 37.4549 108.789 34.0205V29.7881C108.789 26.7219 107.479 25.3731 104.475 25.373H100.391ZM131.391 25.373V38.5586H134.703C137.862 38.5586 139.788 37.4549 139.788 34.0205V29.7881C139.788 26.7219 138.478 25.3731 135.474 25.373H131.391Z" stroke="var(--stroke-0, black)"/>
</g>
<g id="Vector_2">
<path d="M186.302 0.529419C188.955 -0.84535 192.499 0.614476 192.807 3.09583V8.83313L192.946 8.94348H200.156C200.804 8.99028 201.431 9.15369 201.989 9.42004C202.547 9.68642 203.023 10.0496 203.38 10.4825C205.097 12.6049 203.263 15.4159 200.156 15.6613H192.536C184.6 15.6729 184.367 11.7271 184.365 11.6798V3.09583C184.423 2.57947 184.628 2.08028 184.963 1.63586C185.299 1.19147 185.757 0.812814 186.302 0.529419Z" fill="url(#paint1_linear_783_2133)"/>
<path d="M186.302 0.529419C188.955 -0.84535 192.499 0.614476 192.807 3.09583V8.83313L192.946 8.94348H200.156C200.804 8.99028 201.431 9.15369 201.989 9.42004C202.547 9.68642 203.023 10.0496 203.38 10.4825C205.097 12.6049 203.263 15.4159 200.156 15.6613H192.536C184.6 15.6729 184.367 11.7271 184.365 11.6798V3.09583C184.423 2.57947 184.628 2.08028 184.963 1.63586C185.299 1.19147 185.757 0.812814 186.302 0.529419Z" stroke="var(--stroke-0, black)"/>
</g>
<g id="Vector_3">
<path d="M185.255 9.01477C193.238 9.0031 193.426 12.9972 193.426 12.9972V21.5802C193.368 22.0966 193.162 22.5957 192.827 23.0402C192.491 23.4846 192.034 23.8631 191.488 24.1466C188.836 25.5214 185.292 24.0617 184.983 21.5802V15.8439L184.844 15.7325H177.635C176.987 15.6857 176.36 15.5232 175.802 15.257C175.243 14.9906 174.767 14.6274 174.41 14.1945C172.693 12.0721 174.528 9.2602 177.635 9.01477H185.255Z" fill="url(#paint2_linear_783_2133)"/>
<path d="M185.255 9.01477C193.238 9.0031 193.426 12.9972 193.426 12.9972V21.5802C193.368 22.0966 193.162 22.5957 192.827 23.0402C192.491 23.4846 192.034 23.8631 191.488 24.1466C188.836 25.5214 185.292 24.0617 184.983 21.5802V15.8439L184.844 15.7325H177.635C176.987 15.6857 176.36 15.5232 175.802 15.257C175.243 14.9906 174.767 14.6274 174.41 14.1945C172.693 12.0721 174.528 9.2602 177.635 9.01477H185.255Z" stroke="var(--stroke-0, black)"/>
</g>
<g id="Vector_4">
<path d="M19.3389 95.9756V70.2783H26.8896V113.21H18.1826L7.62793 82.1152V113.21H0V70.2783H10.6328L19.3389 95.9756Z" fill="url(#paint3_linear_783_2133)"/>
<path d="M19.3389 95.9756V70.2783H26.8896V113.21H18.1826L7.62793 82.1152V113.21H0V70.2783H10.6328L19.3389 95.9756Z" stroke="var(--stroke-0, black)"/>
</g>
<g id="Vector_5">
<path d="M56.0704 76.4111H41.4308V88.3711H53.0656V94.5039H41.4308V107.077H56.0704V113.21H32.9562V70.2783H56.0704V76.4111Z" fill="url(#paint4_linear_783_2133)"/>
<path d="M56.0704 76.4111H41.4308V88.3711H53.0656V94.5039H41.4308V107.077H56.0704V113.21H32.9562V70.2783H56.0704V76.4111Z" stroke="var(--stroke-0, black)"/>
</g>
<g id="Vector_6">
<path d="M85.0532 76.4111H76.1929V113.21H67.7183V76.4111H58.8579V70.2783H85.0532V76.4111Z" fill="url(#paint5_linear_783_2133)"/>
<path d="M85.0532 76.4111H76.1929V113.21H67.7183V76.4111H58.8579V70.2783H85.0532V76.4111Z" stroke="var(--stroke-0, black)"/>
</g>
<g id="Vector_7">
<path d="M99.6495 104.133L103.732 70.2783H111.899L116.137 104.378L120.528 70.2783H127.925L121.915 113.21H110.667L107.585 90.333L104.503 113.21H92.8692L86.8594 70.2783H95.1036L99.6495 104.133Z" fill="url(#paint6_linear_783_2133)"/>
<path d="M99.6495 104.133L103.732 70.2783H111.899L116.137 104.378L120.528 70.2783H127.925L121.915 113.21H110.667L107.585 90.333L104.503 113.21H92.8692L86.8594 70.2783H95.1036L99.6495 104.133Z" stroke="var(--stroke-0, black)"/>
</g>
<g id="Vector_8">
<path d="M144.374 69.7881C152.694 69.7882 157.24 73.7133 157.24 80.582V102.906C157.24 109.775 152.694 113.701 144.374 113.701C136.053 113.701 131.507 109.775 131.507 102.906V80.582C131.507 73.7132 136.053 69.7881 144.374 69.7881Z" fill="url(#paint7_linear_783_2133)"/>
<path d="M144.374 69.7881C152.694 69.7882 157.24 73.7133 157.24 80.582V102.906C157.24 109.775 152.694 113.701 144.374 113.701C136.053 113.701 131.507 109.775 131.507 102.906V80.582C131.507 73.7132 136.053 69.7881 144.374 69.7881Z" stroke="var(--stroke-0, black)"/>
</g>
<g id="Vector_9">
<path d="M175.537 70.2783C184.32 70.2784 188.095 73.5289 188.096 80.1523V83.5254C188.096 87.9412 186.323 90.8238 182.548 92.2344C186.785 93.645 188.172 96.8959 188.172 101.373V107.997C188.172 110.082 188.249 111.615 189.096 113.21H180.468L180.444 113.153C179.995 112.082 179.697 111.371 179.697 107.936V101.189C179.697 97.2031 178.002 95.7306 174.15 95.7305H171.221V113.21H162.747V70.2783H175.537Z" fill="url(#paint8_linear_783_2133)"/>
<path d="M175.537 70.2783C184.32 70.2784 188.095 73.5289 188.096 80.1523V83.5254C188.096 87.9412 186.323 90.8238 182.548 92.2344C186.785 93.645 188.172 96.8959 188.172 101.373V107.997C188.172 110.082 188.249 111.615 189.096 113.21H180.468L180.444 113.153C179.995 112.082 179.697 111.371 179.697 107.936V101.189C179.697 97.2031 178.002 95.7306 174.15 95.7305H171.221V113.21H162.747V70.2783H175.537Z" stroke="var(--stroke-0, black)"/>
</g>
<g id="Vector_10">
<path d="M202.22 88.9844L213.314 70.2783H221.789L210.001 89.4131L221.789 113.21H213.083L204.839 96.0986L202.22 100.023V113.21H193.744V70.2783H202.22V88.9844Z" fill="url(#paint9_linear_783_2133)"/>
<path d="M202.22 88.9844L213.314 70.2783H221.789L210.001 89.4131L221.789 113.21H213.083L204.839 96.0986L202.22 100.023V113.21H193.744V70.2783H202.22V88.9844Z" stroke="var(--stroke-0, black)"/>
</g>
<g id="Vector_11">
<path d="M175.304 76.4131C178.309 76.4131 179.619 77.7603 179.619 80.8223V85.0488C179.619 88.4784 177.692 89.5811 174.533 89.5811H171.221V76.4131H175.304Z" fill="var(--fill-0, #1E0000)"/>
<path d="M175.304 76.4131C178.309 76.4131 179.619 77.7603 179.619 80.8223V85.0488C179.619 88.4784 177.692 89.5811 174.533 89.5811H171.221V76.4131H175.304Z" stroke="var(--stroke-0, black)"/>
</g>
<g id="Vector_12">
<path d="M144.372 75.9238C147.069 75.9238 148.764 77.089 148.764 80.1553V103.339C148.764 106.405 147.069 107.57 144.372 107.57C141.676 107.57 139.981 106.405 139.981 103.339V80.1553C139.981 77.089 141.676 75.9238 144.372 75.9238Z" fill="var(--fill-0, #1E0000)"/>
<path d="M144.372 75.9238C147.069 75.9238 148.764 77.089 148.764 80.1553V103.339C148.764 106.405 147.069 107.57 144.372 107.57C141.676 107.57 139.981 106.405 139.981 103.339V80.1553C139.981 77.089 141.676 75.9238 144.372 75.9238Z" stroke="var(--stroke-0, black)"/>
</g>
</g>
<defs>
<linearGradient id="paint0_linear_783_2133" x1="219.427" y1="19.6626" x2="219.508" y2="61.7492" gradientUnits="userSpaceOnUse">
<stop stop-color="#FC0162"/>
<stop offset="1" stop-color="#FC0139"/>
</linearGradient>
<linearGradient id="paint1_linear_783_2133" x1="199.08" y1="2.54078" x2="185.149" y2="17.7831" gradientUnits="userSpaceOnUse">
<stop stop-color="#FF4D01"/>
<stop offset="1" stop-color="#E000A1"/>
</linearGradient>
<linearGradient id="paint2_linear_783_2133" x1="176.342" y1="23.6927" x2="192.158" y2="6.44041" gradientUnits="userSpaceOnUse">
<stop stop-color="#E000A1"/>
<stop offset="1" stop-color="#FF4D01"/>
</linearGradient>
<linearGradient id="paint3_linear_783_2133" x1="-0.0951212" y1="70.7013" x2="-0.0139775" y2="112.788" gradientUnits="userSpaceOnUse">
<stop stop-color="#FC0162"/>
<stop offset="1" stop-color="#FC0139"/>
</linearGradient>
<linearGradient id="paint4_linear_783_2133" x1="-0.0961669" y1="70.7013" x2="-0.0150231" y2="112.788" gradientUnits="userSpaceOnUse">
<stop stop-color="#FC0162"/>
<stop offset="1" stop-color="#FC0139"/>
</linearGradient>
<linearGradient id="paint5_linear_783_2133" x1="-0.0948338" y1="70.7013" x2="-0.0136901" y2="112.788" gradientUnits="userSpaceOnUse">
<stop stop-color="#FC0162"/>
<stop offset="1" stop-color="#FC0139"/>
</linearGradient>
<linearGradient id="paint6_linear_783_2133" x1="-0.0956207" y1="70.7013" x2="-0.014477" y2="112.788" gradientUnits="userSpaceOnUse">
<stop stop-color="#FC0162"/>
<stop offset="1" stop-color="#FC0139"/>
</linearGradient>
<linearGradient id="paint7_linear_783_2133" x1="-0.0949273" y1="70.7017" x2="-0.0137838" y2="112.788" gradientUnits="userSpaceOnUse">
<stop stop-color="#FC0162"/>
<stop offset="1" stop-color="#FC0139"/>
</linearGradient>
<linearGradient id="paint8_linear_783_2133" x1="-0.0953135" y1="70.7013" x2="-0.0141696" y2="112.788" gradientUnits="userSpaceOnUse">
<stop stop-color="#FC0162"/>
<stop offset="1" stop-color="#FC0139"/>
</linearGradient>
<linearGradient id="paint9_linear_783_2133" x1="-0.0974665" y1="70.7013" x2="-0.0163228" y2="112.788" gradientUnits="userSpaceOnUse">
<stop stop-color="#FC0162"/>
<stop offset="1" stop-color="#FC0139"/>
</linearGradient>
</defs>
</svg>
