<svg preserveAspectRatio="none" width="100%" height="100%" overflow="visible" style="display: block;" viewBox="0 0 7.52435 13.4826" fill="none" xmlns="http://www.w3.org/2000/svg">
<g id="Vector">
<path d="M3.65234 0C6.16017 4.69871e-05 7.23814 1.02074 7.23828 3.10059V4.16016C7.23828 5.54694 6.73235 6.45251 5.6543 6.89551C6.8643 7.33852 7.26074 8.35961 7.26074 9.76562V11.8457C7.26075 12.5004 7.28249 12.9818 7.52441 13.4824H5.06055L5.05371 13.4648C4.92536 13.1284 4.83984 12.9053 4.83984 11.8262V9.70703C4.83973 8.45541 4.35578 7.99316 3.25586 7.99316H2.41992V13.4824H0V0H3.65234Z" fill="url(#paint0_linear_783_2095)"/>
<path d="M3.65234 0C6.16017 4.69871e-05 7.23814 1.02074 7.23828 3.10059V4.16016C7.23828 5.54694 6.73235 6.45251 5.6543 6.89551C6.8643 7.33852 7.26074 8.35961 7.26074 9.76562V11.8457C7.26075 12.5004 7.28249 12.9818 7.52441 13.4824H5.06055L5.05371 13.4648C4.92536 13.1284 4.83984 12.9053 4.83984 11.8262V9.70703C4.83973 8.45541 4.35578 7.99316 3.25586 7.99316H2.41992V13.4824H0V0H3.65234Z" stroke="var(--stroke-0, black)"/>
</g>
<defs>
<linearGradient id="paint0_linear_783_2095" x1="-46.5006" y1="0.132834" x2="-46.4726" y2="13.3501" gradientUnits="userSpaceOnUse">
<stop stop-color="#FC0162"/>
<stop offset="1" stop-color="#FC0139"/>
</linearGradient>
</defs>
</svg>
