<svg preserveAspectRatio="none" width="100%" height="100%" overflow="visible" style="display: block;" viewBox="0 0 2.50812 9.93859" fill="none" xmlns="http://www.w3.org/2000/svg">
<g id="Vector">
<path d="M1.25391 0C2.02394 0 2.50781 0.36606 2.50781 1.3291V8.60938C2.50781 9.57242 2.02394 9.93848 1.25391 9.93848C0.48396 9.93843 0 9.57235 0 8.60938V1.3291C0 0.366126 0.48396 4.9739e-05 1.25391 0Z" fill="var(--fill-0, #1E0000)"/>
<path d="M1.25391 0C2.02394 0 2.50781 0.36606 2.50781 1.3291V8.60938C2.50781 9.57242 2.02394 9.93848 1.25391 9.93848C0.48396 9.93843 0 9.57235 0 8.60938V1.3291C0 0.366126 0.48396 4.9739e-05 1.25391 0Z" stroke="var(--stroke-0, black)"/>
</g>
</svg>
