<svg preserveAspectRatio="none" width="100%" height="100%" overflow="visible" style="display: block;" viewBox="0 0 1185.13 422.5" fill="none" xmlns="http://www.w3.org/2000/svg">
<g id="CHERRY">
<path id="Blue" d="M875.629 56.0244C876.753 56.0244 874.624 55.7841 875.629 56.0244H835.539C833.52 56.0244 831.765 56.8452 830.378 58.2324C829.019 59.5916 828.359 61.3221 828.359 63.204C828.359 64.4341 828.726 65.595 829.246 66.6357L829.298 66.7402L858.01 109.931L803 157L799.684 143.497C812.382 135.076 818.663 122.075 818.663 105.004C818.663 95.1228 816.252 86.3652 811.333 78.8505C806.409 71.3283 799.327 65.65 790.239 61.7744C781.303 57.9096 770.944 56.0244 759.233 56.0244H685.323C683.109 56.0244 681.15 56.8649 679.592 58.4228C678.034 59.9807 677.193 61.9404 677.193 64.1542V186.893C677.193 189.107 678.034 191.067 679.592 192.625C681.15 194.183 683.109 195.024 685.323 195.024H726.363C728.577 195.024 730.537 194.183 732.095 192.625C733.652 191.067 734.493 189.107 734.493 186.893V152.654H745.504L760.952 187.413L751.339 197.026C736.995 197.08 724.072 199.257 712.619 203.62C700.913 208.08 691.555 215.093 684.653 224.67L684.648 224.677C677.805 234.229 674.487 246.148 674.487 260.224V273.878L655.927 292.438L667.538 207.43L667.565 207.227V206.424C667.565 204.402 666.759 202.637 665.289 201.3C663.952 199.83 662.188 199.024 660.166 199.024H625.766C622.451 199.024 619.492 200.041 617.131 202.22L617.087 202.261L617.044 202.303C614.929 204.418 613.72 207.065 613.384 210.093L613.382 210.112L608.332 258.392L601.193 238.823C600.532 236.756 599.068 235.07 597.252 233.69C595.142 231.836 592.486 231.024 589.565 231.024H575.966C572.985 231.024 570.281 231.865 568.064 233.704C566.336 235.119 564.974 236.812 564.333 238.833L557.198 258.392L552.149 210.112L552.147 210.093L552.071 209.516C551.64 206.701 550.37 204.26 548.286 202.303C546.024 200.041 543.075 199.024 539.766 199.024H505.365C503.287 199.024 501.478 199.869 500.044 201.303C498.645 202.702 497.966 204.482 497.966 206.424V207.227L497.993 207.43L515.392 334.819C515.756 337.551 517.038 339.939 519.044 341.945L519.133 342.033L519.228 342.114C521.566 344.093 524.41 345.024 527.565 345.024H555.565C558.425 345.024 561.049 344.311 563.165 342.623L563.166 342.624C564.94 341.293 566.445 339.693 567.149 337.745L582.766 301.93L598.379 337.738C599.049 339.609 600.414 341.194 602.066 342.546L602.115 342.586L602.166 342.624C602.875 343.156 603.631 343.591 604.426 343.939L470.012 267.878L164.5 422.5L369.416 248.024H383.044V336.624C383.044 338.911 383.911 340.934 385.522 342.545C387.134 344.156 389.156 345.024 391.443 345.024H432.644C434.931 345.024 436.954 344.156 438.565 342.545C440.176 340.934 441.044 338.911 441.044 336.624V248.024H481.044C483.331 248.024 485.354 247.156 486.965 245.545C488.576 243.934 489.443 241.911 489.443 239.624V207.424C489.443 205.137 488.576 203.114 486.965 201.503C485.354 199.892 483.331 199.024 481.044 199.024H418.416L422.416 195.024H482.361C484.575 195.024 486.535 194.183 488.093 192.625C489.651 191.067 490.491 189.107 490.491 186.893V160.104C490.491 157.891 489.651 155.931 488.093 154.373C486.535 152.815 484.575 151.974 482.361 151.974H465.467L471.585 145.854C473.158 145.55 474.565 144.783 475.743 143.605C476.921 142.428 477.688 141.02 477.992 139.447L515.768 101.673V186.893C515.768 189.107 516.608 191.067 518.166 192.625C519.724 194.183 521.683 195.024 523.897 195.024H564.938C567.151 195.024 569.111 194.183 570.669 192.625C572.227 191.067 573.067 189.107 573.067 186.893V152.654H584.078L600.006 188.492L600.011 188.504L600.017 188.516C600.91 190.48 602.334 192.051 604.177 193.224L604.226 193.256L604.275 193.285C606.258 194.442 608.427 195.024 610.728 195.024H653.857C655.739 195.024 657.47 194.364 658.829 193.005C660.216 191.617 661.037 189.862 661.037 187.844C661.037 186.8 660.826 185.762 660.341 184.792L660.322 184.756L660.303 184.72L638.258 143.497C650.956 135.076 657.237 122.075 657.237 105.004C657.237 95.1228 654.826 86.3652 649.907 78.8505C644.983 71.3283 637.901 65.65 628.813 61.7744C619.878 57.9096 609.518 56.0244 597.808 56.0244H561.416L677.193 136.734L875.629 56.0244ZM751.888 197.024C766.445 197.024 779.484 199.2 790.954 203.62C802.649 208.075 812.005 215.013 818.909 224.453C825.894 234.003 829.287 245.862 829.287 259.824V284.224C829.287 305.351 822.197 321.44 807.634 331.863C793.503 342.072 774.825 347.024 751.888 347.024C728.942 347.024 710.201 342.069 695.941 331.863L695.93 331.855C681.492 321.42 674.487 305.191 674.487 283.824V273.878L680.487 267.878V283.824C680.487 303.79 686.95 317.961 699.445 326.992C712.385 336.249 729.773 341.024 751.888 341.024C774.011 341.024 791.329 336.245 804.13 326.992L804.142 326.984C816.778 317.941 823.287 303.896 823.287 284.224V259.824C823.287 246.854 820.148 236.311 814.066 227.995C807.904 219.568 799.525 213.306 788.819 209.227L788.809 209.224C778.148 205.114 765.858 203.024 751.888 203.024C749.607 203.024 747.369 203.08 745.174 203.191L751.339 197.026C751.522 197.026 751.705 197.024 751.888 197.024ZM40.7998 199.024C44.989 199.024 48.4611 200.839 51 204.224L51.0293 204.265L89.2002 256.967V207.424C89.2003 205.137 90.0676 203.114 91.6787 201.503C93.2899 199.892 95.3125 199.024 97.5996 199.024H134.8C137.087 199.024 139.11 199.892 140.722 201.503C142.333 203.114 143.2 205.137 143.2 207.424V336.624C143.2 338.911 142.333 340.934 140.722 342.545C139.11 344.156 137.087 345.024 134.8 345.024H102.6C98.3609 345.024 94.8492 343.101 92.2139 339.643L54 290.91V336.624C54 338.911 53.1325 340.934 51.5215 342.545C49.9101 344.156 47.8869 345.024 45.5996 345.024H8.40039C6.11307 345.024 4.08986 344.156 2.47852 342.545C0.867496 340.934 0 338.911 0 336.624V207.424C0.000142711 205.137 0.867451 203.114 2.47852 201.503C4.08981 199.892 6.11312 199.024 8.40039 199.024H40.7998ZM304.922 199.024C307.209 199.024 309.232 199.892 310.843 201.503C312.454 203.114 313.322 205.137 313.322 207.424V235.624C313.322 237.911 312.454 239.934 310.843 241.545C309.231 243.156 307.209 244.024 304.922 244.024H230.122V250.624H293.922C296.209 250.624 298.232 251.491 299.843 253.102C301.454 254.714 302.322 256.737 302.322 259.024V285.024C302.322 287.311 301.454 289.334 299.843 290.945C298.231 292.557 296.209 293.424 293.922 293.424H230.122V300.024H306.922C309.209 300.024 311.231 300.892 312.843 302.503C314.454 304.114 315.322 306.137 315.322 308.424V336.624C315.322 338.911 314.454 340.934 312.843 342.545C311.231 344.156 309.209 345.024 306.922 345.024H180.521C178.234 345.024 176.212 344.156 174.601 342.545C172.99 340.934 172.122 338.911 172.122 336.624V207.424C172.122 205.137 172.989 203.114 174.601 201.503C176.212 199.892 178.234 199.024 180.521 199.024H304.922ZM650.139 334.819L650.14 334.82C649.765 337.628 648.356 340.038 646.2 342.028L646.192 342.035C643.948 344.093 641.116 345.024 637.966 345.024H609.966C607.983 345.024 606.116 344.681 604.426 343.939L609.358 339.007C609.554 339.018 609.757 339.024 609.966 339.024H637.966C639.882 339.024 641.183 338.488 642.139 337.612C643.443 336.405 644.034 335.217 644.192 334.027L644.193 334.019L648.914 299.451L655.927 292.438L650.139 334.819ZM938.209 199.024C950.519 199.024 961.403 201.006 970.785 205.064C980.326 209.133 987.756 215.092 992.92 222.981C998.078 230.863 1000.61 240.05 1000.61 250.424C1000.61 268.401 993.979 282.06 980.581 290.89L1003.85 334.409L1003.87 334.445L1003.89 334.482C1004.39 335.479 1004.61 336.547 1004.61 337.624C1004.61 339.703 1003.76 341.511 1002.33 342.945C1000.93 344.345 999.151 345.024 997.209 345.024H951.81C949.416 345.024 947.16 344.419 945.098 343.216L945.048 343.187L944.999 343.155C943.082 341.936 941.605 340.304 940.679 338.266L940.673 338.254L940.668 338.242L923.86 300.424H912.01V336.624C912.01 338.911 911.141 340.934 909.53 342.545C907.919 344.156 905.897 345.024 903.609 345.024H860.409C858.122 345.024 856.1 344.156 854.488 342.545C852.877 340.934 852.01 338.911 852.01 336.624V207.424C852.01 205.137 852.877 203.114 854.488 201.503C856.1 199.892 858.122 199.024 860.409 199.024H938.209ZM1071.73 199.024C1074.02 199.024 1076.04 199.892 1077.65 201.503C1079.26 203.114 1080.13 205.137 1080.13 207.424V236.455L1106.43 203.495L1106.48 203.439C1109.03 200.55 1112.31 199.024 1116.13 199.024H1164.33C1166.35 199.024 1168.12 199.83 1169.45 201.3C1170.92 202.637 1171.73 204.402 1171.73 206.424C1171.73 208.173 1171.16 209.791 1170.04 211.144L1170.04 211.143L1124.19 267.054L1176.68 333.158L1176.76 333.256L1176.83 333.36C1177.68 334.637 1178.13 336.08 1178.13 337.624C1178.13 339.703 1177.29 341.511 1175.85 342.945C1174.45 344.345 1172.67 345.024 1170.73 345.024H1119.13C1115.28 345.024 1111.98 343.637 1109.6 340.716L1109.6 340.711L1080.13 304.299V336.624C1080.13 338.911 1079.26 340.934 1077.65 342.545C1076.04 344.156 1074.02 345.024 1071.73 345.024H1030.53C1028.24 345.024 1026.22 344.156 1024.61 342.545C1023 340.934 1022.13 338.911 1022.13 336.624V207.424C1022.13 205.137 1023 203.114 1024.61 201.503C1026.22 199.892 1028.24 199.024 1030.53 199.024H1071.73ZM8.40039 205.024C7.75461 205.024 7.24353 205.223 6.72168 205.745C6.19982 206.267 6.00012 206.778 6 207.424V336.624C6 337.27 6.19981 337.781 6.72168 338.303C7.2436 338.825 7.75445 339.024 8.40039 339.024H45.5996C46.2455 339.024 46.7564 338.825 47.2783 338.303C47.8002 337.781 48 337.27 48 336.624V273.537L96.9609 335.973L96.9863 336.006C98.6175 338.147 100.439 339.024 102.6 339.024H134.8C135.446 339.024 135.957 338.825 136.479 338.303C137 337.781 137.2 337.27 137.2 336.624V207.424C137.2 206.778 137 206.267 136.479 205.745C135.957 205.223 135.446 205.024 134.8 205.024H97.5996C96.9539 205.024 96.4427 205.223 95.9209 205.745C95.3991 206.267 95.2003 206.778 95.2002 207.424V275.48L46.1836 207.804C44.7259 205.87 43.0024 205.024 40.7998 205.024H8.40039ZM180.521 205.024C179.876 205.024 179.365 205.223 178.843 205.745C178.321 206.267 178.122 206.778 178.122 207.424V336.624C178.122 337.27 178.321 337.781 178.843 338.303C179.365 338.825 179.876 339.024 180.521 339.024H306.922C307.568 339.024 308.079 338.825 308.601 338.303C309.122 337.781 309.322 337.27 309.322 336.624V308.424C309.322 307.778 309.122 307.267 308.601 306.745C308.079 306.223 307.568 306.024 306.922 306.024H224.122V287.424H293.922C294.568 287.424 295.079 287.225 295.601 286.703C296.122 286.181 296.322 285.67 296.322 285.024V259.024C296.322 258.379 296.122 257.867 295.601 257.346C295.079 256.824 294.568 256.624 293.922 256.624H224.122V238.024H304.922C305.568 238.024 306.079 237.825 306.601 237.303C307.122 236.781 307.322 236.27 307.322 235.624V207.424C307.322 206.778 307.122 206.267 306.601 205.745C306.079 205.223 305.568 205.024 304.922 205.024H180.521ZM481.044 205.024C481.69 205.024 482.201 205.223 482.723 205.745C483.245 206.267 483.443 206.778 483.443 207.424V239.624C483.443 240.27 483.244 240.781 482.723 241.303C482.201 241.825 481.69 242.024 481.044 242.024H435.044V336.624C435.044 337.27 434.844 337.781 434.322 338.303C433.8 338.825 433.29 339.024 432.644 339.024H391.443C390.798 339.024 390.287 338.825 389.765 338.303C389.243 337.781 389.044 337.27 389.044 336.624V242.024H375.416L412.416 205.024H481.044ZM539.766 205.024C541.789 205.024 543.106 205.607 544.044 206.545L544.087 206.588L544.131 206.629C545.319 207.726 545.995 209.055 546.184 210.755L552.582 271.936L558.384 272.652L569.984 240.852L570.014 240.769L570.039 240.686C570.215 240.099 570.699 239.3 571.865 238.346L571.876 238.337L571.886 238.329C572.866 237.512 574.155 237.024 575.966 237.024H589.565C591.385 237.024 592.545 237.514 593.348 238.244L593.452 238.339L593.565 238.424C594.868 239.401 595.341 240.183 595.492 240.686L595.518 240.769L595.547 240.852L607.147 272.652L612.949 271.936L619.348 210.755C619.542 209.009 620.184 207.668 621.241 206.592C622.342 205.594 623.772 205.024 625.766 205.024H660.166C660.466 205.024 660.642 205.089 660.888 205.376L661.038 205.552L661.213 205.702C661.5 205.948 661.565 206.124 661.565 206.424V206.816L648.914 299.451L609.358 339.007C607.82 338.919 606.684 338.495 605.816 337.86C604.622 336.873 604.162 336.127 604.012 335.676L603.97 335.548L582.766 286.918L561.562 335.548L561.52 335.676C561.395 336.049 560.938 336.795 559.565 337.824L559.515 337.862L559.466 337.902C558.665 338.558 557.461 339.024 555.565 339.024H527.565C525.706 339.024 524.31 338.516 523.196 337.609C522.064 336.446 521.504 335.263 521.339 334.027L521.338 334.019L503.966 206.816V206.424C503.966 205.966 504.087 205.745 504.287 205.545C504.719 205.113 505.044 205.024 505.365 205.024H539.766ZM860.409 205.024C859.763 205.024 859.252 205.223 858.73 205.745C858.209 206.267 858.01 206.778 858.01 207.424V336.624C858.01 337.27 858.209 337.781 858.73 338.303C859.252 338.825 859.763 339.024 860.409 339.024H903.609C904.255 339.024 904.766 338.825 905.288 338.303C905.81 337.781 906.01 337.27 906.01 336.624V294.424H927.759L946.14 335.782C946.541 336.665 947.186 337.423 948.179 338.064C949.3 338.706 950.492 339.024 951.81 339.024H997.209C997.667 339.024 997.887 338.904 998.088 338.703C998.52 338.271 998.609 337.945 998.609 337.624C998.609 337.389 998.568 337.258 998.534 337.185L972.598 288.685L975.103 287.23C988.052 279.707 994.609 267.643 994.609 250.424C994.609 241.065 992.341 233.052 987.899 226.266C983.463 219.489 977.024 214.248 968.433 210.584L968.425 210.58L968.418 210.577C959.938 206.906 949.892 205.024 938.209 205.024H860.409ZM1030.53 205.024C1029.89 205.024 1029.37 205.223 1028.85 205.745C1028.33 206.267 1028.13 206.778 1028.13 207.424V336.624C1028.13 337.27 1028.33 337.781 1028.85 338.303C1029.37 338.825 1029.89 339.024 1030.53 339.024H1071.73C1072.38 339.024 1072.89 338.825 1073.41 338.303C1073.93 337.781 1074.13 337.27 1074.13 336.624V287.349L1114.26 336.937C1115.36 338.279 1116.85 339.024 1119.13 339.024H1170.73C1171.19 339.024 1171.41 338.904 1171.61 338.703C1172.04 338.271 1172.13 337.945 1172.13 337.624C1172.13 337.325 1172.06 337.055 1171.88 336.76L1116.48 266.994L1165.41 207.321L1165.43 207.304C1165.63 207.057 1165.73 206.807 1165.73 206.424C1165.73 206.124 1165.67 205.948 1165.38 205.702L1165.2 205.552L1165.05 205.376C1164.81 205.089 1164.63 205.024 1164.33 205.024H1116.13C1114.1 205.024 1112.46 205.754 1111.02 207.37L1074.13 253.594V207.424C1074.13 206.778 1073.93 206.267 1073.41 205.745C1072.89 205.223 1072.38 205.024 1071.73 205.024H1030.53ZM751.888 236.024C758.6 236.024 764.28 237.664 768.57 241.288C773.123 244.879 775.287 250.007 775.287 256.224V287.824C775.287 294.055 773.115 299.227 768.592 302.942L768.583 302.95C764.287 306.451 758.604 308.024 751.888 308.024C745.164 308.024 739.444 306.448 735.034 302.983L735.013 302.967L734.992 302.95C730.566 299.344 728.487 294.215 728.487 288.024V256.024C728.487 249.834 730.566 244.705 734.992 241.099L735.013 241.081L735.034 241.065C739.444 237.601 745.164 236.024 751.888 236.024ZM751.888 242.024C746.089 242.024 741.814 243.376 738.758 245.769C736 248.029 734.487 251.296 734.487 256.024V288.024C734.487 292.75 735.999 296.015 738.754 298.274C741.81 300.67 746.086 302.024 751.888 302.024C757.705 302.024 761.888 300.664 764.792 298.298C767.729 295.881 769.287 292.521 769.287 287.824V256.224C769.287 251.521 767.728 248.257 764.834 245.983L764.787 245.946L764.742 245.908C761.84 243.436 757.676 242.024 751.888 242.024ZM680.487 267.878V260.224C680.487 247.103 683.569 236.49 689.521 228.178C695.687 219.622 704.063 213.301 714.756 209.227C723.793 205.785 733.923 203.761 745.174 203.191L680.487 267.878ZM934.01 236.223C937.908 236.224 941.185 237.728 943.289 240.936C945.262 243.617 946.209 246.758 946.209 250.224C946.209 253.734 945.238 256.89 943.152 259.498L943.12 259.538L943.087 259.576C940.806 262.237 937.633 263.424 934.01 263.424H906.01V236.223H934.01ZM912.01 257.424H934.01C936.229 257.424 937.581 256.757 938.5 255.705C939.592 254.319 940.209 252.555 940.209 250.224C940.209 247.871 939.58 245.985 938.409 244.424L938.347 244.341L938.291 244.254C937.46 242.97 936.221 242.224 934.01 242.224H912.01V257.424ZM412.416 205.024H343.044C342.398 205.024 341.887 205.223 341.365 205.745C340.843 206.267 340.644 206.778 340.644 207.424V239.624C340.644 240.27 340.843 240.781 341.365 241.303C341.887 241.825 342.398 242.024 343.044 242.024H375.416L369.416 248.024H343.044C340.757 248.024 338.733 247.156 337.122 245.545C335.511 243.934 334.644 241.911 334.644 239.624V207.424C334.644 205.137 335.511 203.114 337.122 201.503C338.733 199.892 340.757 199.024 343.044 199.024H418.416L412.416 205.024ZM99.8496 54.124C115.36 54.124 128.681 56.6423 139.696 61.8183C150.665 66.7864 159.048 73.2233 164.62 81.2324L165.127 81.9619C170.286 89.5081 172.96 97.394 172.96 105.574C172.96 107.467 172.238 109.127 171.005 110.471L170.751 110.735C169.392 112.094 167.662 112.754 165.78 112.754H124.74C120.444 112.754 117.369 110.082 115.406 106.155C113.795 102.933 111.934 100.709 109.909 99.2919C108.128 98.0453 104.949 97.1738 99.8496 97.1738C94.3699 97.1738 90.3482 98.4498 87.4795 100.692C84.8958 102.805 83.4698 105.864 83.4697 110.324V140.724C83.4697 145.184 84.8966 148.243 87.4805 150.355C90.3492 152.598 94.3701 153.874 99.8496 153.874C104.949 153.874 108.128 153.002 109.909 151.756C111.934 150.338 113.795 148.115 115.406 144.892C117.369 140.966 120.444 138.294 124.74 138.294H165.78C167.743 138.294 169.458 139.077 170.755 140.502C172.177 141.799 172.96 143.512 172.96 145.474C172.96 153.915 170.113 162.102 164.634 169.986L164.62 170.006C159.046 177.891 150.658 184.329 139.684 189.425L139.676 189.429L139.669 189.432C128.661 194.471 115.351 196.924 99.8496 196.924C85.9994 196.924 73.5313 194.853 62.4922 190.647L62.4512 190.632C51.455 186.26 42.6239 179.592 36.0586 170.615L36.0527 170.606L36.0459 170.598C29.4012 161.376 26.17 150.025 26.1699 136.734V114.314C26.17 101.025 29.4007 89.7267 36.0586 80.623C42.6257 71.5166 51.4658 64.8414 62.4805 60.5947C73.5238 56.2592 85.9966 54.124 99.8496 54.124ZM235.246 56.0244C237.46 56.0244 239.42 56.865 240.978 58.4228C242.535 59.9807 243.376 61.9405 243.376 64.1542V100.104H275.376V64.1542C275.376 61.9404 276.217 59.9807 277.774 58.4228C279.332 56.8649 281.292 56.0244 283.506 56.0244H322.646C324.859 56.0244 326.819 56.8649 328.377 58.4228C329.935 59.9807 330.775 61.9404 330.775 64.1542V186.893C330.775 189.107 329.935 191.067 328.377 192.625C326.819 194.183 324.86 195.024 322.646 195.024H283.506C281.292 195.024 279.332 194.183 277.774 192.625C276.217 191.067 275.376 189.107 275.376 186.893V149.424H243.376V186.893C243.376 189.107 242.535 191.067 240.978 192.625C239.42 194.183 237.46 195.024 235.246 195.024H196.105C194.013 195.024 192.101 194.335 190.521 192.952L190.445 192.886L190.374 192.815C188.762 191.203 187.976 189.155 187.976 186.893V64.1542C187.976 61.9405 188.816 59.9806 190.374 58.4228C191.932 56.865 193.892 56.0244 196.105 56.0244H235.246ZM480.462 56.0244C482.676 56.0244 484.635 56.865 486.193 58.4228C487.751 59.9807 488.592 61.9405 488.592 64.1542V90.9443C488.592 93.1581 487.751 95.1178 486.193 96.6757C484.635 98.2336 482.676 99.0741 480.462 99.0742H409.552V105.044H470.012C472.226 105.044 474.185 105.885 475.743 107.442C477.301 109 478.141 110.96 478.142 113.174V137.874C478.142 138.414 478.091 138.939 477.992 139.447L471.585 145.854C471.077 145.953 470.552 146.004 470.012 146.004H409.552V151.974H465.467L422.416 195.024H362.281C360.067 195.024 358.108 194.183 356.55 192.625C354.992 191.067 354.151 189.107 354.151 186.893V64.1542C354.151 61.9405 354.992 59.9806 356.55 58.4228C358.108 56.865 360.067 56.0244 362.281 56.0244H480.462ZM821.729 184.72L821.748 184.756L821.767 184.792C822.252 185.762 822.463 186.8 822.463 187.844C822.463 189.862 821.642 191.617 820.255 193.005C818.896 194.364 817.165 195.024 815.283 195.024H772.153C769.853 195.024 767.684 194.442 765.701 193.285L765.651 193.256L765.603 193.224C763.759 192.051 762.335 190.48 761.442 188.516L761.437 188.504L761.432 188.492L760.952 187.413L803 157L821.729 184.72ZM974.619 56.0244C976.579 56.0244 978.292 56.8056 979.589 58.2265C980.932 59.4445 981.799 61.0671 981.799 63.0136C981.799 64.2917 981.475 65.5088 980.912 66.6357L980.858 66.7431L980.797 66.8457L933.349 145.36V186.893C933.349 189.107 932.508 191.067 930.95 192.625C929.392 194.183 927.433 195.024 925.219 195.024H884.749C882.535 195.024 880.576 194.183 879.018 192.625C877.46 191.067 876.619 189.107 876.619 186.893V145.357L858.01 109.931L1014.5 0L875.629 56.0244C878.687 56.7559 884.355 58.9602 886.024 61.9072L904.936 95.0449L924.347 62.246L924.356 62.2304C926.746 58.2476 930.338 56.0244 934.909 56.0244H974.619ZM1080.94 70.0839C1083.16 70.0839 1085.12 70.9247 1086.68 72.4824C1088.23 74.0402 1089.08 76 1089.08 78.2138V103.904H1116.29C1118.5 103.904 1120.46 104.745 1122.02 106.303C1123.57 107.861 1124.41 109.82 1124.42 112.034V138.444C1124.41 140.658 1123.57 142.618 1122.02 144.176C1120.46 145.733 1118.5 146.574 1116.29 146.574H1089.08V173.214C1089.08 175.428 1088.23 177.387 1086.68 178.945C1085.12 180.503 1083.16 181.344 1080.94 181.344H1052.06C1049.85 181.344 1047.89 180.503 1046.33 178.945C1044.78 177.387 1043.93 175.428 1043.93 173.214V146.574H1016.72C1014.51 146.574 1012.55 145.734 1010.99 144.176C1009.44 142.618 1008.59 140.658 1008.59 138.444V112.034C1008.59 109.82 1009.44 107.861 1010.99 106.303C1012.55 104.745 1014.51 103.904 1016.72 103.904H1043.93V78.2138C1043.93 76 1044.78 74.0402 1046.33 72.4824C1047.89 70.9246 1049.85 70.084 1052.06 70.0839H1080.94ZM593.817 97.3642C595.875 97.3642 597.001 98.0529 597.759 99.2236L597.815 99.3105L597.877 99.3935C598.968 100.849 599.558 102.609 599.558 104.814C599.558 107.002 598.979 108.644 597.964 109.931C597.125 110.887 595.886 111.504 593.817 111.504H573.067V97.3642H593.817ZM755.243 97.3642C757.301 97.3642 758.427 98.0529 759.185 99.2236L759.241 99.3105L759.303 99.3935C760.394 100.849 760.983 102.609 760.983 104.814C760.983 107.002 760.404 108.644 759.39 109.931C758.551 110.887 757.311 111.504 755.243 111.504H734.493V97.3642H755.243ZM515.768 101.673V64.1542C515.768 61.9404 516.608 59.9807 518.166 58.4228C519.724 56.8649 521.684 56.0244 523.897 56.0244H561.416L515.768 101.673Z" fill="var(--fill-0, white)"/>
<path id="Yellow" d="M882.629 56.0244C883.753 56.0244 881.624 55.7841 882.629 56.0244H842.539C840.52 56.0244 838.765 56.8452 837.378 58.2324C836.019 59.5916 835.359 61.3221 835.359 63.204C835.359 64.4341 835.726 65.595 836.246 66.6357L836.298 66.7402L865.01 109.931L810 157L806.684 143.497C819.382 135.076 825.663 122.075 825.663 105.004C825.663 95.1228 823.252 86.3652 818.333 78.8505C813.409 71.3283 806.327 65.65 797.239 61.7744C788.303 57.9096 777.944 56.0244 766.233 56.0244H692.323C690.109 56.0244 688.15 56.8649 686.592 58.4228C685.034 59.9807 684.193 61.9404 684.193 64.1542V186.893C684.193 189.107 685.034 191.067 686.592 192.625C688.15 194.183 690.109 195.024 692.323 195.024H733.363C735.577 195.024 737.537 194.183 739.095 192.625C740.652 191.067 741.493 189.107 741.493 186.893V152.654H752.504L767.952 187.413L758.339 197.026C743.995 197.08 731.072 199.257 719.619 203.62C707.913 208.08 698.555 215.093 691.653 224.67L691.648 224.677C684.805 234.229 681.487 246.148 681.487 260.224V273.878L662.927 292.438L674.538 207.43L674.565 207.227V206.424C674.565 204.402 673.759 202.637 672.289 201.3C670.952 199.83 669.188 199.024 667.166 199.024H632.766C629.451 199.024 626.492 200.041 624.131 202.22L624.087 202.261L624.044 202.303C621.929 204.418 620.72 207.065 620.384 210.093L620.382 210.112L615.332 258.392L608.193 238.823C607.532 236.756 606.068 235.07 604.252 233.69C602.142 231.836 599.486 231.024 596.565 231.024H582.966C579.985 231.024 577.281 231.865 575.064 233.704C573.336 235.119 571.974 236.812 571.333 238.833L564.198 258.392L559.149 210.112L559.147 210.093L559.071 209.516C558.64 206.701 557.37 204.26 555.286 202.303C553.024 200.041 550.075 199.024 546.766 199.024H512.365C510.287 199.024 508.478 199.869 507.044 201.303C505.645 202.702 504.966 204.482 504.966 206.424V207.227L504.993 207.43L522.392 334.819C522.756 337.551 524.038 339.939 526.044 341.945L526.133 342.033L526.228 342.114C528.566 344.093 531.41 345.024 534.565 345.024H562.565C565.425 345.024 568.049 344.311 570.165 342.623L570.166 342.624C571.94 341.293 573.445 339.693 574.149 337.745L589.766 301.93L605.379 337.738C606.049 339.609 607.414 341.194 609.066 342.546L609.115 342.586L609.166 342.624C609.875 343.156 610.631 343.591 611.426 343.939L477.012 267.878L171.5 422.5L376.416 248.024H390.044V336.624C390.044 338.911 390.911 340.934 392.522 342.545C394.134 344.156 396.156 345.024 398.443 345.024H439.644C441.931 345.024 443.954 344.156 445.565 342.545C447.176 340.934 448.044 338.911 448.044 336.624V248.024H488.044C490.331 248.024 492.354 247.156 493.965 245.545C495.576 243.934 496.443 241.911 496.443 239.624V207.424C496.443 205.137 495.576 203.114 493.965 201.503C492.354 199.892 490.331 199.024 488.044 199.024H425.416L429.416 195.024H489.361C491.575 195.024 493.535 194.183 495.093 192.625C496.651 191.067 497.491 189.107 497.491 186.893V160.104C497.491 157.891 496.651 155.931 495.093 154.373C493.535 152.815 491.575 151.974 489.361 151.974H472.467L478.585 145.854C480.158 145.55 481.565 144.783 482.743 143.605C483.921 142.428 484.688 141.02 484.992 139.447L522.768 101.673V186.893C522.768 189.107 523.608 191.067 525.166 192.625C526.724 194.183 528.683 195.024 530.897 195.024H571.938C574.151 195.024 576.111 194.183 577.669 192.625C579.227 191.067 580.067 189.107 580.067 186.893V152.654H591.078L607.006 188.492L607.011 188.504L607.017 188.516C607.91 190.48 609.334 192.051 611.177 193.224L611.226 193.256L611.275 193.285C613.258 194.442 615.427 195.024 617.728 195.024H660.857C662.739 195.024 664.47 194.364 665.829 193.005C667.216 191.617 668.037 189.862 668.037 187.844C668.037 186.8 667.826 185.762 667.341 184.792L667.322 184.756L667.303 184.72L645.258 143.497C657.956 135.076 664.237 122.075 664.237 105.004C664.237 95.1228 661.826 86.3652 656.907 78.8505C651.983 71.3283 644.901 65.65 635.813 61.7744C626.878 57.9096 616.518 56.0244 604.808 56.0244H568.416L684.193 136.734L882.629 56.0244ZM758.888 197.024C773.445 197.024 786.484 199.2 797.954 203.62C809.649 208.075 819.005 215.013 825.909 224.453C832.894 234.003 836.287 245.862 836.287 259.824V284.224C836.287 305.351 829.197 321.44 814.634 331.863C800.503 342.072 781.825 347.024 758.888 347.024C735.942 347.024 717.201 342.069 702.941 331.863L702.93 331.855C688.492 321.42 681.487 305.191 681.487 283.824V273.878L687.487 267.878V283.824C687.487 303.79 693.95 317.961 706.445 326.992C719.385 336.249 736.773 341.024 758.888 341.024C781.011 341.024 798.329 336.245 811.13 326.992L811.142 326.984C823.778 317.941 830.287 303.896 830.287 284.224V259.824C830.287 246.854 827.148 236.311 821.066 227.995C814.904 219.568 806.525 213.306 795.819 209.227L795.809 209.224C785.148 205.114 772.858 203.024 758.888 203.024C756.607 203.024 754.369 203.08 752.174 203.191L758.339 197.026C758.522 197.026 758.705 197.024 758.888 197.024ZM47.7998 199.024C51.989 199.024 55.4611 200.839 58 204.224L58.0293 204.265L96.2002 256.967V207.424C96.2003 205.137 97.0676 203.114 98.6787 201.503C100.29 199.892 102.312 199.024 104.6 199.024H141.8C144.087 199.024 146.11 199.892 147.722 201.503C149.333 203.114 150.2 205.137 150.2 207.424V336.624C150.2 338.911 149.333 340.934 147.722 342.545C146.11 344.156 144.087 345.024 141.8 345.024H109.6C105.361 345.024 101.849 343.101 99.2139 339.643L61 290.91V336.624C61 338.911 60.1325 340.934 58.5215 342.545C56.9101 344.156 54.8869 345.024 52.5996 345.024H15.4004C13.1131 345.024 11.0899 344.156 9.47852 342.545C7.8675 340.934 7 338.911 7 336.624V207.424C7.00014 205.137 7.86745 203.114 9.47852 201.503C11.0898 199.892 13.1131 199.024 15.4004 199.024H47.7998ZM311.922 199.024C314.209 199.024 316.232 199.892 317.843 201.503C319.454 203.114 320.322 205.137 320.322 207.424V235.624C320.322 237.911 319.454 239.934 317.843 241.545C316.231 243.156 314.209 244.024 311.922 244.024H237.122V250.624H300.922C303.209 250.624 305.232 251.491 306.843 253.102C308.454 254.714 309.322 256.737 309.322 259.024V285.024C309.322 287.311 308.454 289.334 306.843 290.945C305.231 292.557 303.209 293.424 300.922 293.424H237.122V300.024H313.922C316.209 300.024 318.231 300.892 319.843 302.503C321.454 304.114 322.322 306.137 322.322 308.424V336.624C322.322 338.911 321.454 340.934 319.843 342.545C318.231 344.156 316.209 345.024 313.922 345.024H187.521C185.234 345.024 183.212 344.156 181.601 342.545C179.99 340.934 179.122 338.911 179.122 336.624V207.424C179.122 205.137 179.989 203.114 181.601 201.503C183.212 199.892 185.234 199.024 187.521 199.024H311.922ZM657.139 334.819L657.14 334.82C656.765 337.628 655.356 340.038 653.2 342.028L653.192 342.035C650.948 344.093 648.116 345.024 644.966 345.024H616.966C614.983 345.024 613.116 344.681 611.426 343.939L616.358 339.007C616.554 339.018 616.757 339.024 616.966 339.024H644.966C646.882 339.024 648.183 338.488 649.139 337.612C650.443 336.405 651.034 335.217 651.192 334.027L651.193 334.019L655.914 299.451L662.927 292.438L657.139 334.819ZM945.209 199.024C957.519 199.024 968.403 201.006 977.785 205.064C987.326 209.133 994.756 215.092 999.92 222.981C1005.08 230.863 1007.61 240.05 1007.61 250.424C1007.61 268.401 1000.98 282.06 987.581 290.89L1010.85 334.409L1010.87 334.445L1010.89 334.482C1011.39 335.479 1011.61 336.547 1011.61 337.624C1011.61 339.703 1010.76 341.511 1009.33 342.945C1007.93 344.345 1006.15 345.024 1004.21 345.024H958.81C956.416 345.024 954.16 344.419 952.098 343.216L952.048 343.187L951.999 343.155C950.082 341.936 948.605 340.304 947.679 338.266L947.673 338.254L947.668 338.242L930.86 300.424H919.01V336.624C919.01 338.911 918.141 340.934 916.53 342.545C914.919 344.156 912.897 345.024 910.609 345.024H867.409C865.122 345.024 863.1 344.156 861.488 342.545C859.877 340.934 859.01 338.911 859.01 336.624V207.424C859.01 205.137 859.877 203.114 861.488 201.503C863.1 199.892 865.122 199.024 867.409 199.024H945.209ZM1078.73 199.024C1081.02 199.024 1083.04 199.892 1084.65 201.503C1086.26 203.114 1087.13 205.137 1087.13 207.424V236.455L1113.43 203.495L1113.48 203.439C1116.03 200.55 1119.31 199.024 1123.13 199.024H1171.33C1173.35 199.024 1175.12 199.83 1176.45 201.3C1177.92 202.637 1178.73 204.402 1178.73 206.424C1178.73 208.173 1178.16 209.791 1177.04 211.144L1177.04 211.143L1131.19 267.054L1183.68 333.158L1183.76 333.256L1183.83 333.36C1184.68 334.637 1185.13 336.08 1185.13 337.624C1185.13 339.703 1184.29 341.511 1182.85 342.945C1181.45 344.345 1179.67 345.024 1177.73 345.024H1126.13C1122.28 345.024 1118.98 343.637 1116.6 340.716L1116.6 340.711L1087.13 304.299V336.624C1087.13 338.911 1086.26 340.934 1084.65 342.545C1083.04 344.156 1081.02 345.024 1078.73 345.024H1037.53C1035.24 345.024 1033.22 344.156 1031.61 342.545C1030 340.934 1029.13 338.911 1029.13 336.624V207.424C1029.13 205.137 1030 203.114 1031.61 201.503C1033.22 199.892 1035.24 199.024 1037.53 199.024H1078.73ZM15.4004 205.024C14.7546 205.024 14.2435 205.223 13.7217 205.745C13.1998 206.267 13.0001 206.778 13 207.424V336.624C13 337.27 13.1998 337.781 13.7217 338.303C14.2436 338.825 14.7545 339.024 15.4004 339.024H52.5996C53.2455 339.024 53.7564 338.825 54.2783 338.303C54.8002 337.781 55 337.27 55 336.624V273.537L103.961 335.973L103.986 336.006C105.617 338.147 107.439 339.024 109.6 339.024H141.8C142.446 339.024 142.957 338.825 143.479 338.303C144 337.781 144.2 337.27 144.2 336.624V207.424C144.2 206.778 144 206.267 143.479 205.745C142.957 205.223 142.446 205.024 141.8 205.024H104.6C103.954 205.024 103.443 205.223 102.921 205.745C102.399 206.267 102.2 206.778 102.2 207.424V275.48L53.1836 207.804C51.7259 205.87 50.0024 205.024 47.7998 205.024H15.4004ZM187.521 205.024C186.876 205.024 186.365 205.223 185.843 205.745C185.321 206.267 185.122 206.778 185.122 207.424V336.624C185.122 337.27 185.321 337.781 185.843 338.303C186.365 338.825 186.876 339.024 187.521 339.024H313.922C314.568 339.024 315.079 338.825 315.601 338.303C316.122 337.781 316.322 337.27 316.322 336.624V308.424C316.322 307.778 316.122 307.267 315.601 306.745C315.079 306.223 314.568 306.024 313.922 306.024H231.122V287.424H300.922C301.568 287.424 302.079 287.225 302.601 286.703C303.122 286.181 303.322 285.67 303.322 285.024V259.024C303.322 258.379 303.122 257.867 302.601 257.346C302.079 256.824 301.568 256.624 300.922 256.624H231.122V238.024H311.922C312.568 238.024 313.079 237.825 313.601 237.303C314.122 236.781 314.322 236.27 314.322 235.624V207.424C314.322 206.778 314.122 206.267 313.601 205.745C313.079 205.223 312.568 205.024 311.922 205.024H187.521ZM488.044 205.024C488.69 205.024 489.201 205.223 489.723 205.745C490.245 206.267 490.443 206.778 490.443 207.424V239.624C490.443 240.27 490.244 240.781 489.723 241.303C489.201 241.825 488.69 242.024 488.044 242.024H442.044V336.624C442.044 337.27 441.844 337.781 441.322 338.303C440.8 338.825 440.29 339.024 439.644 339.024H398.443C397.798 339.024 397.287 338.825 396.765 338.303C396.243 337.781 396.044 337.27 396.044 336.624V242.024H382.416L419.416 205.024H488.044ZM546.766 205.024C548.789 205.024 550.106 205.607 551.044 206.545L551.087 206.588L551.131 206.629C552.319 207.726 552.995 209.055 553.184 210.755L559.582 271.936L565.384 272.652L576.984 240.852L577.014 240.769L577.039 240.686C577.215 240.099 577.699 239.3 578.865 238.346L578.876 238.337L578.886 238.329C579.866 237.512 581.155 237.024 582.966 237.024H596.565C598.385 237.024 599.545 237.514 600.348 238.244L600.452 238.339L600.565 238.424C601.868 239.401 602.341 240.183 602.492 240.686L602.518 240.769L602.547 240.852L614.147 272.652L619.949 271.936L626.348 210.755C626.542 209.009 627.184 207.668 628.241 206.592C629.342 205.594 630.772 205.024 632.766 205.024H667.166C667.466 205.024 667.642 205.089 667.888 205.376L668.038 205.552L668.213 205.702C668.5 205.948 668.565 206.124 668.565 206.424V206.816L655.914 299.451L616.358 339.007C614.82 338.919 613.684 338.495 612.816 337.86C611.622 336.873 611.162 336.127 611.012 335.676L610.97 335.548L589.766 286.918L568.562 335.548L568.52 335.676C568.395 336.049 567.938 336.795 566.565 337.824L566.515 337.862L566.466 337.902C565.665 338.558 564.461 339.024 562.565 339.024H534.565C532.706 339.024 531.31 338.516 530.196 337.609C529.064 336.446 528.504 335.263 528.339 334.027L528.338 334.019L510.966 206.816V206.424C510.966 205.966 511.087 205.745 511.287 205.545C511.719 205.113 512.044 205.024 512.365 205.024H546.766ZM867.409 205.024C866.763 205.024 866.252 205.223 865.73 205.745C865.209 206.267 865.01 206.778 865.01 207.424V336.624C865.01 337.27 865.209 337.781 865.73 338.303C866.252 338.825 866.763 339.024 867.409 339.024H910.609C911.255 339.024 911.766 338.825 912.288 338.303C912.81 337.781 913.01 337.27 913.01 336.624V294.424H934.759L953.14 335.782C953.541 336.665 954.186 337.423 955.179 338.064C956.3 338.706 957.492 339.024 958.81 339.024H1004.21C1004.67 339.024 1004.89 338.904 1005.09 338.703C1005.52 338.271 1005.61 337.945 1005.61 337.624C1005.61 337.389 1005.57 337.258 1005.53 337.185L979.598 288.685L982.103 287.23C995.052 279.707 1001.61 267.643 1001.61 250.424C1001.61 241.065 999.341 233.052 994.899 226.266C990.463 219.489 984.024 214.248 975.433 210.584L975.425 210.58L975.418 210.577C966.938 206.906 956.892 205.024 945.209 205.024H867.409ZM1037.53 205.024C1036.89 205.024 1036.37 205.223 1035.85 205.745C1035.33 206.267 1035.13 206.778 1035.13 207.424V336.624C1035.13 337.27 1035.33 337.781 1035.85 338.303C1036.37 338.825 1036.89 339.024 1037.53 339.024H1078.73C1079.38 339.024 1079.89 338.825 1080.41 338.303C1080.93 337.781 1081.13 337.27 1081.13 336.624V287.349L1121.26 336.937C1122.36 338.279 1123.85 339.024 1126.13 339.024H1177.73C1178.19 339.024 1178.41 338.904 1178.61 338.703C1179.04 338.271 1179.13 337.945 1179.13 337.624C1179.13 337.325 1179.06 337.055 1178.88 336.76L1123.48 266.994L1172.41 207.321L1172.43 207.304C1172.63 207.057 1172.73 206.807 1172.73 206.424C1172.73 206.124 1172.67 205.948 1172.38 205.702L1172.2 205.552L1172.05 205.376C1171.81 205.089 1171.63 205.024 1171.33 205.024H1123.13C1121.1 205.024 1119.46 205.754 1118.02 207.37L1081.13 253.594V207.424C1081.13 206.778 1080.93 206.267 1080.41 205.745C1079.89 205.223 1079.38 205.024 1078.73 205.024H1037.53ZM758.888 236.024C765.6 236.024 771.28 237.664 775.57 241.288C780.123 244.879 782.287 250.007 782.287 256.224V287.824C782.287 294.055 780.115 299.227 775.592 302.942L775.583 302.95C771.287 306.451 765.604 308.024 758.888 308.024C752.164 308.024 746.444 306.448 742.034 302.983L742.013 302.967L741.992 302.95C737.566 299.344 735.487 294.215 735.487 288.024V256.024C735.487 249.834 737.566 244.705 741.992 241.099L742.013 241.081L742.034 241.065C746.444 237.601 752.164 236.024 758.888 236.024ZM758.888 242.024C753.089 242.024 748.814 243.376 745.758 245.769C743 248.029 741.487 251.296 741.487 256.024V288.024C741.487 292.75 742.999 296.015 745.754 298.274C748.81 300.67 753.086 302.024 758.888 302.024C764.705 302.024 768.888 300.664 771.792 298.298C774.729 295.881 776.287 292.521 776.287 287.824V256.224C776.287 251.521 774.728 248.257 771.834 245.983L771.787 245.946L771.742 245.908C768.84 243.436 764.676 242.024 758.888 242.024ZM687.487 267.878V260.224C687.487 247.103 690.569 236.49 696.521 228.178C702.687 219.622 711.063 213.301 721.756 209.227C730.793 205.785 740.923 203.761 752.174 203.191L687.487 267.878ZM941.01 236.223C944.908 236.224 948.185 237.728 950.289 240.936C952.262 243.617 953.209 246.758 953.209 250.224C953.209 253.734 952.238 256.89 950.152 259.498L950.12 259.538L950.087 259.576C947.806 262.237 944.633 263.424 941.01 263.424H913.01V236.223H941.01ZM919.01 257.424H941.01C943.229 257.424 944.581 256.757 945.5 255.705C946.592 254.319 947.209 252.555 947.209 250.224C947.209 247.871 946.58 245.985 945.409 244.424L945.347 244.341L945.291 244.254C944.46 242.97 943.221 242.224 941.01 242.224H919.01V257.424ZM419.416 205.024H350.044C349.398 205.024 348.887 205.223 348.365 205.745C347.843 206.267 347.644 206.778 347.644 207.424V239.624C347.644 240.27 347.843 240.781 348.365 241.303C348.887 241.825 349.398 242.024 350.044 242.024H382.416L376.416 248.024H350.044C347.757 248.024 345.733 247.156 344.122 245.545C342.511 243.934 341.644 241.911 341.644 239.624V207.424C341.644 205.137 342.511 203.114 344.122 201.503C345.733 199.892 347.757 199.024 350.044 199.024H425.416L419.416 205.024ZM106.85 54.124C122.36 54.124 135.681 56.6423 146.696 61.8183C157.665 66.7864 166.048 73.2233 171.62 81.2324L172.127 81.9619C177.286 89.5081 179.96 97.394 179.96 105.574C179.96 107.467 179.238 109.127 178.005 110.471L177.751 110.735C176.392 112.094 174.662 112.754 172.78 112.754H131.74C127.444 112.754 124.369 110.082 122.406 106.155C120.795 102.933 118.934 100.709 116.909 99.2919C115.128 98.0453 111.949 97.1738 106.85 97.1738C101.37 97.1738 97.3482 98.4498 94.4795 100.692C91.8958 102.805 90.4698 105.864 90.4697 110.324V140.724C90.4697 145.184 91.8966 148.243 94.4805 150.355C97.3492 152.598 101.37 153.874 106.85 153.874C111.949 153.874 115.128 153.002 116.909 151.756C118.934 150.338 120.795 148.115 122.406 144.892C124.369 140.966 127.444 138.294 131.74 138.294H172.78C174.743 138.294 176.458 139.077 177.755 140.502C179.177 141.799 179.96 143.512 179.96 145.474C179.96 153.915 177.113 162.102 171.634 169.986L171.62 170.006C166.046 177.891 157.658 184.329 146.684 189.425L146.676 189.429L146.669 189.432C135.661 194.471 122.351 196.924 106.85 196.924C92.9994 196.924 80.5313 194.853 69.4922 190.647L69.4512 190.632C58.455 186.26 49.6239 179.592 43.0586 170.615L43.0527 170.606L43.0459 170.598C36.4012 161.376 33.17 150.025 33.1699 136.734V114.314C33.17 101.025 36.4007 89.7267 43.0586 80.623C49.6257 71.5166 58.4658 64.8414 69.4805 60.5947C80.5238 56.2592 92.9966 54.124 106.85 54.124ZM242.246 56.0244C244.46 56.0244 246.42 56.865 247.978 58.4228C249.535 59.9807 250.376 61.9405 250.376 64.1542V100.104H282.376V64.1542C282.376 61.9404 283.217 59.9807 284.774 58.4228C286.332 56.8649 288.292 56.0244 290.506 56.0244H329.646C331.859 56.0244 333.819 56.8649 335.377 58.4228C336.935 59.9807 337.775 61.9404 337.775 64.1542V186.893C337.775 189.107 336.935 191.067 335.377 192.625C333.819 194.183 331.86 195.024 329.646 195.024H290.506C288.292 195.024 286.332 194.183 284.774 192.625C283.217 191.067 282.376 189.107 282.376 186.893V149.424H250.376V186.893C250.376 189.107 249.535 191.067 247.978 192.625C246.42 194.183 244.46 195.024 242.246 195.024H203.105C201.013 195.024 199.101 194.335 197.521 192.952L197.445 192.886L197.374 192.815C195.762 191.203 194.976 189.155 194.976 186.893V64.1542C194.976 61.9405 195.816 59.9806 197.374 58.4228C198.932 56.865 200.892 56.0244 203.105 56.0244H242.246ZM487.462 56.0244C489.676 56.0244 491.635 56.865 493.193 58.4228C494.751 59.9807 495.592 61.9405 495.592 64.1542V90.9443C495.592 93.1581 494.751 95.1178 493.193 96.6757C491.635 98.2336 489.676 99.0741 487.462 99.0742H416.552V105.044H477.012C479.226 105.044 481.185 105.885 482.743 107.442C484.301 109 485.141 110.96 485.142 113.174V137.874C485.142 138.414 485.091 138.939 484.992 139.447L478.585 145.854C478.077 145.953 477.552 146.004 477.012 146.004H416.552V151.974H472.467L429.416 195.024H369.281C367.067 195.024 365.108 194.183 363.55 192.625C361.992 191.067 361.151 189.107 361.151 186.893V64.1542C361.151 61.9405 361.992 59.9806 363.55 58.4228C365.108 56.865 367.067 56.0244 369.281 56.0244H487.462ZM828.729 184.72L828.748 184.756L828.767 184.792C829.252 185.762 829.463 186.8 829.463 187.844C829.463 189.862 828.642 191.617 827.255 193.005C825.896 194.364 824.165 195.024 822.283 195.024H779.153C776.853 195.024 774.684 194.442 772.701 193.285L772.651 193.256L772.603 193.224C770.759 192.051 769.335 190.48 768.442 188.516L768.437 188.504L768.432 188.492L767.952 187.413L810 157L828.729 184.72ZM981.619 56.0244C983.579 56.0244 985.292 56.8056 986.589 58.2265C987.932 59.4445 988.799 61.0671 988.799 63.0136C988.799 64.2917 988.475 65.5088 987.912 66.6357L987.858 66.7431L987.797 66.8457L940.349 145.36V186.893C940.349 189.107 939.508 191.067 937.95 192.625C936.392 194.183 934.433 195.024 932.219 195.024H891.749C889.535 195.024 887.576 194.183 886.018 192.625C884.46 191.067 883.619 189.107 883.619 186.893V145.357L865.01 109.931L1021.5 0L882.629 56.0244C885.687 56.7559 891.355 58.9602 893.024 61.9072L911.936 95.0449L931.347 62.246L931.356 62.2304C933.746 58.2476 937.338 56.0244 941.909 56.0244H981.619ZM1087.94 70.0839C1090.16 70.0839 1092.12 70.9247 1093.68 72.4824C1095.23 74.0402 1096.08 76 1096.08 78.2138V103.904H1123.29C1125.5 103.904 1127.46 104.745 1129.02 106.303C1130.57 107.861 1131.41 109.82 1131.42 112.034V138.444C1131.41 140.658 1130.57 142.618 1129.02 144.176C1127.46 145.733 1125.5 146.574 1123.29 146.574H1096.08V173.214C1096.08 175.428 1095.23 177.387 1093.68 178.945C1092.12 180.503 1090.16 181.344 1087.94 181.344H1059.06C1056.85 181.344 1054.89 180.503 1053.33 178.945C1051.78 177.387 1050.93 175.428 1050.93 173.214V146.574H1023.72C1021.51 146.574 1019.55 145.734 1017.99 144.176C1016.44 142.618 1015.59 140.658 1015.59 138.444V112.034C1015.59 109.82 1016.44 107.861 1017.99 106.303C1019.55 104.745 1021.51 103.904 1023.72 103.904H1050.93V78.2138C1050.93 76 1051.78 74.0402 1053.33 72.4824C1054.89 70.9246 1056.85 70.084 1059.06 70.0839H1087.94ZM600.817 97.3642C602.875 97.3642 604.001 98.0529 604.759 99.2236L604.815 99.3105L604.877 99.3935C605.968 100.849 606.558 102.609 606.558 104.814C606.558 107.002 605.979 108.644 604.964 109.931C604.125 110.887 602.886 111.504 600.817 111.504H580.067V97.3642H600.817ZM762.243 97.3642C764.301 97.3642 765.427 98.0529 766.185 99.2236L766.241 99.3105L766.303 99.3935C767.394 100.849 767.983 102.609 767.983 104.814C767.983 107.002 767.404 108.644 766.39 109.931C765.551 110.887 764.311 111.504 762.243 111.504H741.493V97.3642H762.243ZM522.768 101.673V64.1542C522.768 61.9404 523.608 59.9807 525.166 58.4228C526.724 56.8649 528.684 56.0244 530.897 56.0244H568.416L522.768 101.673Z" fill="var(--fill-0, #FFFD89)"/>
<path id="Red" d="M879.629 56.0244C880.753 56.0244 878.624 55.7841 879.629 56.0244H839.539C837.52 56.0244 835.765 56.8452 834.378 58.2324C833.019 59.5916 832.359 61.3221 832.359 63.204C832.359 64.4341 832.726 65.595 833.246 66.6357L833.298 66.7402L862.01 109.931L807 157L803.684 143.497C816.382 135.076 822.663 122.075 822.663 105.004C822.663 95.1228 820.252 86.3652 815.333 78.8505C810.409 71.3283 803.327 65.65 794.239 61.7744C785.303 57.9096 774.944 56.0244 763.233 56.0244H689.323C687.109 56.0244 685.15 56.8649 683.592 58.4228C682.034 59.9807 681.193 61.9404 681.193 64.1542V186.893C681.193 189.107 682.034 191.067 683.592 192.625C685.15 194.183 687.109 195.024 689.323 195.024H730.363C732.577 195.024 734.537 194.183 736.095 192.625C737.652 191.067 738.493 189.107 738.493 186.893V152.654H749.504L764.952 187.413L755.339 197.026C740.995 197.08 728.072 199.257 716.619 203.62C704.913 208.08 695.555 215.093 688.653 224.67L688.648 224.677C681.805 234.229 678.487 246.148 678.487 260.224V273.878L659.927 292.438L671.538 207.43L671.565 207.227V206.424C671.565 204.402 670.759 202.637 669.289 201.3C667.952 199.83 666.188 199.024 664.166 199.024H629.766C626.451 199.024 623.492 200.041 621.131 202.22L621.087 202.261L621.044 202.303C618.929 204.418 617.72 207.065 617.384 210.093L617.382 210.112L612.332 258.392L605.193 238.823C604.532 236.756 603.068 235.07 601.252 233.69C599.142 231.836 596.486 231.024 593.565 231.024H579.966C576.985 231.024 574.281 231.865 572.064 233.704C570.336 235.119 568.974 236.812 568.333 238.833L561.198 258.392L556.149 210.112L556.147 210.093L556.071 209.516C555.64 206.701 554.37 204.26 552.286 202.303C550.024 200.041 547.075 199.024 543.766 199.024H509.365C507.287 199.024 505.478 199.869 504.044 201.303C502.645 202.702 501.966 204.482 501.966 206.424V207.227L501.993 207.43L519.392 334.819C519.756 337.551 521.038 339.939 523.044 341.945L523.133 342.033L523.228 342.114C525.566 344.093 528.41 345.024 531.565 345.024H559.565C562.425 345.024 565.049 344.311 567.165 342.623L567.166 342.624C568.94 341.293 570.445 339.693 571.149 337.745L586.766 301.93L602.379 337.738C603.049 339.609 604.414 341.194 606.066 342.546L606.115 342.586L606.166 342.624C606.875 343.156 607.631 343.591 608.426 343.939L474.012 267.878L168.5 422.5L373.416 248.024H387.044V336.624C387.044 338.911 387.911 340.934 389.522 342.545C391.134 344.156 393.156 345.024 395.443 345.024H436.644C438.931 345.024 440.954 344.156 442.565 342.545C444.176 340.934 445.044 338.911 445.044 336.624V248.024H485.044C487.331 248.024 489.354 247.156 490.965 245.545C492.576 243.934 493.443 241.911 493.443 239.624V207.424C493.443 205.137 492.576 203.114 490.965 201.503C489.354 199.892 487.331 199.024 485.044 199.024H422.416L426.416 195.024H486.361C488.575 195.024 490.535 194.183 492.093 192.625C493.651 191.067 494.491 189.107 494.491 186.893V160.104C494.491 157.891 493.651 155.931 492.093 154.373C490.535 152.815 488.575 151.974 486.361 151.974H469.467L475.585 145.854C477.158 145.55 478.565 144.783 479.743 143.605C480.921 142.428 481.688 141.02 481.992 139.447L519.768 101.673V186.893C519.768 189.107 520.608 191.067 522.166 192.625C523.724 194.183 525.683 195.024 527.897 195.024H568.938C571.151 195.024 573.111 194.183 574.669 192.625C576.227 191.067 577.067 189.107 577.067 186.893V152.654H588.078L604.006 188.492L604.011 188.504L604.017 188.516C604.91 190.48 606.334 192.051 608.177 193.224L608.226 193.256L608.275 193.285C610.258 194.442 612.427 195.024 614.728 195.024H657.857C659.739 195.024 661.47 194.364 662.829 193.005C664.216 191.617 665.037 189.862 665.037 187.844C665.037 186.8 664.826 185.762 664.341 184.792L664.322 184.756L664.303 184.72L642.258 143.497C654.956 135.076 661.237 122.075 661.237 105.004C661.237 95.1228 658.826 86.3652 653.907 78.8505C648.983 71.3283 641.901 65.65 632.813 61.7744C623.878 57.9096 613.518 56.0244 601.808 56.0244H565.416L681.193 136.734L879.629 56.0244ZM755.888 197.024C770.445 197.024 783.484 199.2 794.954 203.62C806.649 208.075 816.005 215.013 822.909 224.453C829.894 234.003 833.287 245.862 833.287 259.824V284.224C833.287 305.351 826.197 321.44 811.634 331.863C797.503 342.072 778.825 347.024 755.888 347.024C732.942 347.024 714.201 342.069 699.941 331.863L699.93 331.855C685.492 321.42 678.487 305.191 678.487 283.824V273.878L684.487 267.878V283.824C684.487 303.79 690.95 317.961 703.445 326.992C716.385 336.249 733.773 341.024 755.888 341.024C778.011 341.024 795.329 336.245 808.13 326.992L808.142 326.984C820.778 317.941 827.287 303.896 827.287 284.224V259.824C827.287 246.854 824.148 236.311 818.066 227.995C811.904 219.568 803.525 213.306 792.819 209.227L792.809 209.224C782.148 205.114 769.858 203.024 755.888 203.024C753.607 203.024 751.369 203.08 749.174 203.191L755.339 197.026C755.522 197.026 755.705 197.024 755.888 197.024ZM44.7998 199.024C48.989 199.024 52.4611 200.839 55 204.224L55.0293 204.265L93.2002 256.967V207.424C93.2003 205.137 94.0676 203.114 95.6787 201.503C97.2899 199.892 99.3125 199.024 101.6 199.024H138.8C141.087 199.024 143.11 199.892 144.722 201.503C146.333 203.114 147.2 205.137 147.2 207.424V336.624C147.2 338.911 146.333 340.934 144.722 342.545C143.11 344.156 141.087 345.024 138.8 345.024H106.6C102.361 345.024 98.8492 343.101 96.2139 339.643L58 290.91V336.624C58 338.911 57.1325 340.934 55.5215 342.545C53.9101 344.156 51.8869 345.024 49.5996 345.024H12.4004C10.1131 345.024 8.08986 344.156 6.47852 342.545C4.8675 340.934 4 338.911 4 336.624V207.424C4.00014 205.137 4.86745 203.114 6.47852 201.503C8.08981 199.892 10.1131 199.024 12.4004 199.024H44.7998ZM308.922 199.024C311.209 199.024 313.232 199.892 314.843 201.503C316.454 203.114 317.322 205.137 317.322 207.424V235.624C317.322 237.911 316.454 239.934 314.843 241.545C313.231 243.156 311.209 244.024 308.922 244.024H234.122V250.624H297.922C300.209 250.624 302.232 251.491 303.843 253.102C305.454 254.714 306.322 256.737 306.322 259.024V285.024C306.322 287.311 305.454 289.334 303.843 290.945C302.231 292.557 300.209 293.424 297.922 293.424H234.122V300.024H310.922C313.209 300.024 315.231 300.892 316.843 302.503C318.454 304.114 319.322 306.137 319.322 308.424V336.624C319.322 338.911 318.454 340.934 316.843 342.545C315.231 344.156 313.209 345.024 310.922 345.024H184.521C182.234 345.024 180.212 344.156 178.601 342.545C176.99 340.934 176.122 338.911 176.122 336.624V207.424C176.122 205.137 176.989 203.114 178.601 201.503C180.212 199.892 182.234 199.024 184.521 199.024H308.922ZM654.139 334.819L654.14 334.82C653.765 337.628 652.356 340.038 650.2 342.028L650.192 342.035C647.948 344.093 645.116 345.024 641.966 345.024H613.966C611.983 345.024 610.116 344.681 608.426 343.939L613.358 339.007C613.554 339.018 613.757 339.024 613.966 339.024H641.966C643.882 339.024 645.183 338.488 646.139 337.612C647.443 336.405 648.034 335.217 648.192 334.027L648.193 334.019L652.914 299.451L659.927 292.438L654.139 334.819ZM942.209 199.024C954.519 199.024 965.403 201.006 974.785 205.064C984.326 209.133 991.756 215.092 996.92 222.981C1002.08 230.863 1004.61 240.05 1004.61 250.424C1004.61 268.401 997.979 282.06 984.581 290.89L1007.85 334.409L1007.87 334.445L1007.89 334.482C1008.39 335.479 1008.61 336.547 1008.61 337.624C1008.61 339.703 1007.76 341.511 1006.33 342.945C1004.93 344.345 1003.15 345.024 1001.21 345.024H955.81C953.416 345.024 951.16 344.419 949.098 343.216L949.048 343.187L948.999 343.155C947.082 341.936 945.605 340.304 944.679 338.266L944.673 338.254L944.668 338.242L927.86 300.424H916.01V336.624C916.01 338.911 915.141 340.934 913.53 342.545C911.919 344.156 909.897 345.024 907.609 345.024H864.409C862.122 345.024 860.1 344.156 858.488 342.545C856.877 340.934 856.01 338.911 856.01 336.624V207.424C856.01 205.137 856.877 203.114 858.488 201.503C860.1 199.892 862.122 199.024 864.409 199.024H942.209ZM1075.73 199.024C1078.02 199.024 1080.04 199.892 1081.65 201.503C1083.26 203.114 1084.13 205.137 1084.13 207.424V236.455L1110.43 203.495L1110.48 203.439C1113.03 200.55 1116.31 199.024 1120.13 199.024H1168.33C1170.35 199.024 1172.12 199.83 1173.45 201.3C1174.92 202.637 1175.73 204.402 1175.73 206.424C1175.73 208.173 1175.16 209.791 1174.04 211.144L1174.04 211.143L1128.19 267.054L1180.68 333.158L1180.76 333.256L1180.83 333.36C1181.68 334.637 1182.13 336.08 1182.13 337.624C1182.13 339.703 1181.29 341.511 1179.85 342.945C1178.45 344.345 1176.67 345.024 1174.73 345.024H1123.13C1119.28 345.024 1115.98 343.637 1113.6 340.716L1113.6 340.711L1084.13 304.299V336.624C1084.13 338.911 1083.26 340.934 1081.65 342.545C1080.04 344.156 1078.02 345.024 1075.73 345.024H1034.53C1032.24 345.024 1030.22 344.156 1028.61 342.545C1027 340.934 1026.13 338.911 1026.13 336.624V207.424C1026.13 205.137 1027 203.114 1028.61 201.503C1030.22 199.892 1032.24 199.024 1034.53 199.024H1075.73ZM12.4004 205.024C11.7546 205.024 11.2435 205.223 10.7217 205.745C10.1998 206.267 10.0001 206.778 10 207.424V336.624C10 337.27 10.1998 337.781 10.7217 338.303C11.2436 338.825 11.7545 339.024 12.4004 339.024H49.5996C50.2455 339.024 50.7564 338.825 51.2783 338.303C51.8002 337.781 52 337.27 52 336.624V273.537L100.961 335.973L100.986 336.006C102.617 338.147 104.439 339.024 106.6 339.024H138.8C139.446 339.024 139.957 338.825 140.479 338.303C141 337.781 141.2 337.27 141.2 336.624V207.424C141.2 206.778 141 206.267 140.479 205.745C139.957 205.223 139.446 205.024 138.8 205.024H101.6C100.954 205.024 100.443 205.223 99.9209 205.745C99.3991 206.267 99.2003 206.778 99.2002 207.424V275.48L50.1836 207.804C48.7259 205.87 47.0024 205.024 44.7998 205.024H12.4004ZM184.521 205.024C183.876 205.024 183.365 205.223 182.843 205.745C182.321 206.267 182.122 206.778 182.122 207.424V336.624C182.122 337.27 182.321 337.781 182.843 338.303C183.365 338.825 183.876 339.024 184.521 339.024H310.922C311.568 339.024 312.079 338.825 312.601 338.303C313.122 337.781 313.322 337.27 313.322 336.624V308.424C313.322 307.778 313.122 307.267 312.601 306.745C312.079 306.223 311.568 306.024 310.922 306.024H228.122V287.424H297.922C298.568 287.424 299.079 287.225 299.601 286.703C300.122 286.181 300.322 285.67 300.322 285.024V259.024C300.322 258.379 300.122 257.867 299.601 257.346C299.079 256.824 298.568 256.624 297.922 256.624H228.122V238.024H308.922C309.568 238.024 310.079 237.825 310.601 237.303C311.122 236.781 311.322 236.27 311.322 235.624V207.424C311.322 206.778 311.122 206.267 310.601 205.745C310.079 205.223 309.568 205.024 308.922 205.024H184.521ZM485.044 205.024C485.69 205.024 486.201 205.223 486.723 205.745C487.245 206.267 487.443 206.778 487.443 207.424V239.624C487.443 240.27 487.244 240.781 486.723 241.303C486.201 241.825 485.69 242.024 485.044 242.024H439.044V336.624C439.044 337.27 438.844 337.781 438.322 338.303C437.8 338.825 437.29 339.024 436.644 339.024H395.443C394.798 339.024 394.287 338.825 393.765 338.303C393.243 337.781 393.044 337.27 393.044 336.624V242.024H379.416L416.416 205.024H485.044ZM543.766 205.024C545.789 205.024 547.106 205.607 548.044 206.545L548.087 206.588L548.131 206.629C549.319 207.726 549.995 209.055 550.184 210.755L556.582 271.936L562.384 272.652L573.984 240.852L574.014 240.769L574.039 240.686C574.215 240.099 574.699 239.3 575.865 238.346L575.876 238.337L575.886 238.329C576.866 237.512 578.155 237.024 579.966 237.024H593.565C595.385 237.024 596.545 237.514 597.348 238.244L597.452 238.339L597.565 238.424C598.868 239.401 599.341 240.183 599.492 240.686L599.518 240.769L599.547 240.852L611.147 272.652L616.949 271.936L623.348 210.755C623.542 209.009 624.184 207.668 625.241 206.592C626.342 205.594 627.772 205.024 629.766 205.024H664.166C664.466 205.024 664.642 205.089 664.888 205.376L665.038 205.552L665.213 205.702C665.5 205.948 665.565 206.124 665.565 206.424V206.816L652.914 299.451L613.358 339.007C611.82 338.919 610.684 338.495 609.816 337.86C608.622 336.873 608.162 336.127 608.012 335.676L607.97 335.548L586.766 286.918L565.562 335.548L565.52 335.676C565.395 336.049 564.938 336.795 563.565 337.824L563.515 337.862L563.466 337.902C562.665 338.558 561.461 339.024 559.565 339.024H531.565C529.706 339.024 528.31 338.516 527.196 337.609C526.064 336.446 525.504 335.263 525.339 334.027L525.338 334.019L507.966 206.816V206.424C507.966 205.966 508.087 205.745 508.287 205.545C508.719 205.113 509.044 205.024 509.365 205.024H543.766ZM864.409 205.024C863.763 205.024 863.252 205.223 862.73 205.745C862.209 206.267 862.01 206.778 862.01 207.424V336.624C862.01 337.27 862.209 337.781 862.73 338.303C863.252 338.825 863.763 339.024 864.409 339.024H907.609C908.255 339.024 908.766 338.825 909.288 338.303C909.81 337.781 910.01 337.27 910.01 336.624V294.424H931.759L950.14 335.782C950.541 336.665 951.186 337.423 952.179 338.064C953.3 338.706 954.492 339.024 955.81 339.024H1001.21C1001.67 339.024 1001.89 338.904 1002.09 338.703C1002.52 338.271 1002.61 337.945 1002.61 337.624C1002.61 337.389 1002.57 337.258 1002.53 337.185L976.598 288.685L979.103 287.23C992.052 279.707 998.609 267.643 998.609 250.424C998.609 241.065 996.341 233.052 991.899 226.266C987.463 219.489 981.024 214.248 972.433 210.584L972.425 210.58L972.418 210.577C963.938 206.906 953.892 205.024 942.209 205.024H864.409ZM1034.53 205.024C1033.89 205.024 1033.37 205.223 1032.85 205.745C1032.33 206.267 1032.13 206.778 1032.13 207.424V336.624C1032.13 337.27 1032.33 337.781 1032.85 338.303C1033.37 338.825 1033.89 339.024 1034.53 339.024H1075.73C1076.38 339.024 1076.89 338.825 1077.41 338.303C1077.93 337.781 1078.13 337.27 1078.13 336.624V287.349L1118.26 336.937C1119.36 338.279 1120.85 339.024 1123.13 339.024H1174.73C1175.19 339.024 1175.41 338.904 1175.61 338.703C1176.04 338.271 1176.13 337.945 1176.13 337.624C1176.13 337.325 1176.06 337.055 1175.88 336.76L1120.48 266.994L1169.41 207.321L1169.43 207.304C1169.63 207.057 1169.73 206.807 1169.73 206.424C1169.73 206.124 1169.67 205.948 1169.38 205.702L1169.2 205.552L1169.05 205.376C1168.81 205.089 1168.63 205.024 1168.33 205.024H1120.13C1118.1 205.024 1116.46 205.754 1115.02 207.37L1078.13 253.594V207.424C1078.13 206.778 1077.93 206.267 1077.41 205.745C1076.89 205.223 1076.38 205.024 1075.73 205.024H1034.53ZM755.888 236.024C762.6 236.024 768.28 237.664 772.57 241.288C777.123 244.879 779.287 250.007 779.287 256.224V287.824C779.287 294.055 777.115 299.227 772.592 302.942L772.583 302.95C768.287 306.451 762.604 308.024 755.888 308.024C749.164 308.024 743.444 306.448 739.034 302.983L739.013 302.967L738.992 302.95C734.566 299.344 732.487 294.215 732.487 288.024V256.024C732.487 249.834 734.566 244.705 738.992 241.099L739.013 241.081L739.034 241.065C743.444 237.601 749.164 236.024 755.888 236.024ZM755.888 242.024C750.089 242.024 745.814 243.376 742.758 245.769C740 248.029 738.487 251.296 738.487 256.024V288.024C738.487 292.75 739.999 296.015 742.754 298.274C745.81 300.67 750.086 302.024 755.888 302.024C761.705 302.024 765.888 300.664 768.792 298.298C771.729 295.881 773.287 292.521 773.287 287.824V256.224C773.287 251.521 771.728 248.257 768.834 245.983L768.787 245.946L768.742 245.908C765.84 243.436 761.676 242.024 755.888 242.024ZM684.487 267.878V260.224C684.487 247.103 687.569 236.49 693.521 228.178C699.687 219.622 708.063 213.301 718.756 209.227C727.793 205.785 737.923 203.761 749.174 203.191L684.487 267.878ZM938.01 236.223C941.908 236.224 945.185 237.728 947.289 240.936C949.262 243.617 950.209 246.758 950.209 250.224C950.209 253.734 949.238 256.89 947.152 259.498L947.12 259.538L947.087 259.576C944.806 262.237 941.633 263.424 938.01 263.424H910.01V236.223H938.01ZM916.01 257.424H938.01C940.229 257.424 941.581 256.757 942.5 255.705C943.592 254.319 944.209 252.555 944.209 250.224C944.209 247.871 943.58 245.985 942.409 244.424L942.347 244.341L942.291 244.254C941.46 242.97 940.221 242.224 938.01 242.224H916.01V257.424ZM416.416 205.024H347.044C346.398 205.024 345.887 205.223 345.365 205.745C344.843 206.267 344.644 206.778 344.644 207.424V239.624C344.644 240.27 344.843 240.781 345.365 241.303C345.887 241.825 346.398 242.024 347.044 242.024H379.416L373.416 248.024H347.044C344.757 248.024 342.733 247.156 341.122 245.545C339.511 243.934 338.644 241.911 338.644 239.624V207.424C338.644 205.137 339.511 203.114 341.122 201.503C342.733 199.892 344.757 199.024 347.044 199.024H422.416L416.416 205.024ZM103.85 54.124C119.36 54.124 132.681 56.6423 143.696 61.8183C154.665 66.7864 163.048 73.2233 168.62 81.2324L169.127 81.9619C174.286 89.5081 176.96 97.394 176.96 105.574C176.96 107.467 176.238 109.127 175.005 110.471L174.751 110.735C173.392 112.094 171.662 112.754 169.78 112.754H128.74C124.444 112.754 121.369 110.082 119.406 106.155C117.795 102.933 115.934 100.709 113.909 99.2919C112.128 98.0453 108.949 97.1738 103.85 97.1738C98.3699 97.1738 94.3482 98.4498 91.4795 100.692C88.8958 102.805 87.4698 105.864 87.4697 110.324V140.724C87.4697 145.184 88.8966 148.243 91.4805 150.355C94.3492 152.598 98.3701 153.874 103.85 153.874C108.949 153.874 112.128 153.002 113.909 151.756C115.934 150.338 117.795 148.115 119.406 144.892C121.369 140.966 124.444 138.294 128.74 138.294H169.78C171.743 138.294 173.458 139.077 174.755 140.502C176.177 141.799 176.96 143.512 176.96 145.474C176.96 153.915 174.113 162.102 168.634 169.986L168.62 170.006C163.046 177.891 154.658 184.329 143.684 189.425L143.676 189.429L143.669 189.432C132.661 194.471 119.351 196.924 103.85 196.924C89.9994 196.924 77.5313 194.853 66.4922 190.647L66.4512 190.632C55.455 186.26 46.6239 179.592 40.0586 170.615L40.0527 170.606L40.0459 170.598C33.4012 161.376 30.17 150.025 30.1699 136.734V114.314C30.17 101.025 33.4007 89.7267 40.0586 80.623C46.6257 71.5166 55.4658 64.8414 66.4805 60.5947C77.5238 56.2592 89.9966 54.124 103.85 54.124ZM239.246 56.0244C241.46 56.0244 243.42 56.865 244.978 58.4228C246.535 59.9807 247.376 61.9405 247.376 64.1542V100.104H279.376V64.1542C279.376 61.9404 280.217 59.9807 281.774 58.4228C283.332 56.8649 285.292 56.0244 287.506 56.0244H326.646C328.859 56.0244 330.819 56.8649 332.377 58.4228C333.935 59.9807 334.775 61.9404 334.775 64.1542V186.893C334.775 189.107 333.935 191.067 332.377 192.625C330.819 194.183 328.86 195.024 326.646 195.024H287.506C285.292 195.024 283.332 194.183 281.774 192.625C280.217 191.067 279.376 189.107 279.376 186.893V149.424H247.376V186.893C247.376 189.107 246.535 191.067 244.978 192.625C243.42 194.183 241.46 195.024 239.246 195.024H200.105C198.013 195.024 196.101 194.335 194.521 192.952L194.445 192.886L194.374 192.815C192.762 191.203 191.976 189.155 191.976 186.893V64.1542C191.976 61.9405 192.816 59.9806 194.374 58.4228C195.932 56.865 197.892 56.0244 200.105 56.0244H239.246ZM484.462 56.0244C486.676 56.0244 488.635 56.865 490.193 58.4228C491.751 59.9807 492.592 61.9405 492.592 64.1542V90.9443C492.592 93.1581 491.751 95.1178 490.193 96.6757C488.635 98.2336 486.676 99.0741 484.462 99.0742H413.552V105.044H474.012C476.226 105.044 478.185 105.885 479.743 107.442C481.301 109 482.141 110.96 482.142 113.174V137.874C482.142 138.414 482.091 138.939 481.992 139.447L475.585 145.854C475.077 145.953 474.552 146.004 474.012 146.004H413.552V151.974H469.467L426.416 195.024H366.281C364.067 195.024 362.108 194.183 360.55 192.625C358.992 191.067 358.151 189.107 358.151 186.893V64.1542C358.151 61.9405 358.992 59.9806 360.55 58.4228C362.108 56.865 364.067 56.0244 366.281 56.0244H484.462ZM825.729 184.72L825.748 184.756L825.767 184.792C826.252 185.762 826.463 186.8 826.463 187.844C826.463 189.862 825.642 191.617 824.255 193.005C822.896 194.364 821.165 195.024 819.283 195.024H776.153C773.853 195.024 771.684 194.442 769.701 193.285L769.651 193.256L769.603 193.224C767.759 192.051 766.335 190.48 765.442 188.516L765.437 188.504L765.432 188.492L764.952 187.413L807 157L825.729 184.72ZM978.619 56.0244C980.579 56.0244 982.292 56.8056 983.589 58.2265C984.932 59.4445 985.799 61.0671 985.799 63.0136C985.799 64.2917 985.475 65.5088 984.912 66.6357L984.858 66.7431L984.797 66.8457L937.349 145.36V186.893C937.349 189.107 936.508 191.067 934.95 192.625C933.392 194.183 931.433 195.024 929.219 195.024H888.749C886.535 195.024 884.576 194.183 883.018 192.625C881.46 191.067 880.619 189.107 880.619 186.893V145.357L862.01 109.931L1018.5 0L879.629 56.0244C882.687 56.7559 888.355 58.9602 890.024 61.9072L908.936 95.0449L928.347 62.246L928.356 62.2304C930.746 58.2476 934.338 56.0244 938.909 56.0244H978.619ZM1084.94 70.0839C1087.16 70.0839 1089.12 70.9247 1090.68 72.4824C1092.23 74.0402 1093.08 76 1093.08 78.2138V103.904H1120.29C1122.5 103.904 1124.46 104.745 1126.02 106.303C1127.57 107.861 1128.41 109.82 1128.42 112.034V138.444C1128.41 140.658 1127.57 142.618 1126.02 144.176C1124.46 145.733 1122.5 146.574 1120.29 146.574H1093.08V173.214C1093.08 175.428 1092.23 177.387 1090.68 178.945C1089.12 180.503 1087.16 181.344 1084.94 181.344H1056.06C1053.85 181.344 1051.89 180.503 1050.33 178.945C1048.78 177.387 1047.93 175.428 1047.93 173.214V146.574H1020.72C1018.51 146.574 1016.55 145.734 1014.99 144.176C1013.44 142.618 1012.59 140.658 1012.59 138.444V112.034C1012.59 109.82 1013.44 107.861 1014.99 106.303C1016.55 104.745 1018.51 103.904 1020.72 103.904H1047.93V78.2138C1047.93 76 1048.78 74.0402 1050.33 72.4824C1051.89 70.9246 1053.85 70.084 1056.06 70.0839H1084.94ZM597.817 97.3642C599.875 97.3642 601.001 98.0529 601.759 99.2236L601.815 99.3105L601.877 99.3935C602.968 100.849 603.558 102.609 603.558 104.814C603.558 107.002 602.979 108.644 601.964 109.931C601.125 110.887 599.886 111.504 597.817 111.504H577.067V97.3642H597.817ZM759.243 97.3642C761.301 97.3642 762.427 98.0529 763.185 99.2236L763.241 99.3105L763.303 99.3935C764.394 100.849 764.983 102.609 764.983 104.814C764.983 107.002 764.404 108.644 763.39 109.931C762.551 110.887 761.311 111.504 759.243 111.504H738.493V97.3642H759.243ZM519.768 101.673V64.1542C519.768 61.9404 520.608 59.9807 522.166 58.4228C523.724 56.8649 525.684 56.0244 527.897 56.0244H565.416L519.768 101.673Z" fill="url(#paint0_linear_796_2170)"/>
</g>
<defs>
<linearGradient id="paint0_linear_796_2170" x1="-8139.05" y1="4.16256" x2="-8138.87" y2="418.348" gradientUnits="userSpaceOnUse">
<stop stop-color="#FC0162"/>
<stop offset="1" stop-color="#FC0139"/>
</linearGradient>
</defs>
</svg>
