<svg preserveAspectRatio="none" width="100%" height="100%" overflow="visible" style="display: block;" viewBox="0 0 23.2085 22.6823" fill="none" xmlns="http://www.w3.org/2000/svg">
<path id="Vector" d="M23.0557 13.587C22.6248 15.7758 21.5763 17.7955 20.0339 19.4073C18.4916 21.0191 16.5201 22.1555 14.3523 22.6823C14.9473 21.98 15.463 21.07 15.8912 20.0375C16.317 19.0108 16.6728 17.8197 16.9365 16.5142C18.893 16.0102 20.6652 15.2355 22.1515 14.245C22.4642 14.0362 22.7663 13.8168 23.0557 13.587ZM0.154 13.587C0.443333 13.8168 0.7455 14.0362 1.05817 14.245C2.54333 15.2355 4.3155 16.0102 6.27317 16.5142C6.53567 17.8197 6.8915 19.0108 7.3185 20.0375C7.7455 21.0688 8.26117 21.98 8.85617 22.6823C6.68865 22.1553 4.71733 21.0188 3.17523 19.407C1.63314 17.7953 0.584752 15.7757 0.154 13.587ZM14.4363 16.9937C14.2547 17.7267 14.0204 18.4457 13.7352 19.145C13.3303 20.1227 12.8847 20.8425 12.4623 21.2987C12.0307 21.7653 11.7343 21.8412 11.6048 21.8412C11.4753 21.8412 11.1802 21.7653 10.7473 21.2987C10.325 20.8437 9.87933 20.1227 9.4745 19.145C9.18931 18.4457 8.95498 17.7267 8.77333 16.9937C9.69267 17.1127 10.64 17.1745 11.6048 17.1745C12.5516 17.1751 13.4974 17.1147 14.4363 16.9937ZM15.0617 9.85833C15.153 11.4292 15.0975 13.0052 14.896 14.5658C13.8495 14.7455 12.7458 14.8412 11.6048 14.8412C10.5016 14.8424 9.40021 14.7503 8.3125 14.5658C8.10812 13.0055 8.05303 11.4292 8.148 9.85833C9.25167 10.0648 10.4113 10.1745 11.6048 10.1745C12.7644 10.1758 13.9216 10.0699 15.0617 9.85833ZM22.1818 6.412C22.7185 7.56233 23.0743 8.81533 23.2085 10.1325C22.624 10.9177 21.8353 11.6515 20.8565 12.3025C19.8415 12.9792 18.6445 13.5508 17.311 13.979C17.4632 12.4103 17.4796 10.8314 17.36 9.25983C18.4614 8.89368 19.5129 8.39165 20.4902 7.76533C21.0985 7.37278 21.6653 6.91933 22.1818 6.412ZM1.02783 6.412C1.5295 6.91017 2.10117 7.36283 2.7195 7.76533C3.69661 8.39186 4.74813 8.89391 5.84967 9.25983C5.73046 10.8314 5.74647 12.4102 5.8975 13.979C4.564 13.5508 3.367 12.9803 2.352 12.3037C1.37433 11.6515 0.585667 10.9177 0 10.1325C0.135333 8.81417 0.49 7.56233 1.02667 6.41083L1.02783 6.412ZM11.6048 0.841167C11.7332 0.841167 12.0295 0.918167 12.4623 1.38483C12.8847 1.83983 13.3303 2.56083 13.7352 3.5385C14.1902 4.63867 14.5682 5.99783 14.8108 7.52967C13.8052 7.7315 12.7283 7.84117 11.6048 7.84117C10.5281 7.84322 9.45385 7.73888 8.39767 7.52967C8.64033 5.99783 9.01833 4.63867 9.4745 3.53967C9.87933 2.56083 10.325 1.841 10.7462 1.38483C11.1802 0.918167 11.4753 0.841167 11.6048 0.841167ZM14.3523 0C16.9816 0.638587 19.3075 2.17061 20.9323 4.33417C20.4353 4.90595 19.858 5.40267 19.2185 5.80883C18.5424 6.24293 17.822 6.6039 17.0695 6.88567C16.8 5.29783 16.3928 3.85817 15.8912 2.646C15.463 1.6135 14.9485 0.702333 14.3523 0ZM8.85733 0C8.26233 0.702333 7.74667 1.6135 7.3185 2.646C6.81683 3.85933 6.4085 5.29783 6.14017 6.88567C5.38769 6.60391 4.66731 6.24294 3.99117 5.80883C3.35126 5.40272 2.77358 4.906 2.27617 4.33417C3.90129 2.17038 6.2276 0.63834 8.85733 0Z" fill="var(--fill-0, #C1C1C1)"/>
</svg>
