<svg preserveAspectRatio="none" width="100%" height="100%" overflow="visible" style="display: block;" viewBox="0 0 91.6667 62.5" fill="none" xmlns="http://www.w3.org/2000/svg">
<path id="Vector" d="M45.8333 0C25 0 7.20833 12.9583 0 31.25C7.20833 49.5417 25 62.5 45.8333 62.5C66.6667 62.5 84.4583 49.5417 91.6667 31.25C84.4583 12.9583 66.6667 0 45.8333 0ZM45.8333 52.0833C34.3333 52.0833 25 42.75 25 31.25C25 19.75 34.3333 10.4167 45.8333 10.4167C57.3333 10.4167 66.6667 19.75 66.6667 31.25C66.6667 42.75 57.3333 52.0833 45.8333 52.0833ZM45.8333 18.75C38.9167 18.75 33.3333 24.3333 33.3333 31.25C33.3333 38.1667 38.9167 43.75 45.8333 43.75C52.75 43.75 58.3333 38.1667 58.3333 31.25C58.3333 24.3333 52.75 18.75 45.8333 18.75Z" fill="url(#paint0_linear_796_2221)"/>
<defs>
<linearGradient id="paint0_linear_796_2221" x1="-633.585" y1="0.615764" x2="-633.533" y2="61.8858" gradientUnits="userSpaceOnUse">
<stop stop-color="#FC0162"/>
<stop offset="1" stop-color="#FC0139"/>
</linearGradient>
</defs>
</svg>
