<svg preserveAspectRatio="none" width="100%" height="100%" overflow="visible" style="display: block;" viewBox="0 0 24 17.6827" fill="none" xmlns="http://www.w3.org/2000/svg">
<g id="Group">
<path id="Vector" d="M24 3.90234V14.3661C24.0001 15.2121 23.6492 16.0261 23.0193 16.6416C22.3893 17.2571 21.5279 17.6275 20.6112 17.6772L20.4 17.6827H3.6C2.68175 17.6827 1.79818 17.3595 1.13009 16.7792C0.461992 16.1988 0.059871 15.4052 0.00600014 14.5607L0 14.3661V3.90234L11.334 10.8638L11.4732 10.9368C11.6372 11.0106 11.8174 11.049 12 11.049C12.1826 11.049 12.3628 11.0106 12.5268 10.9368L12.666 10.8638L24 3.90234Z" fill="var(--fill-0, #C1C1C1)"/>
<path id="Vector_2" d="M20.4 0C21.696 0 22.8324 0.630148 23.466 1.57758L12 8.61976L0.534013 1.57758C0.834963 1.12744 1.24836 0.750097 1.73974 0.477021C2.23112 0.203945 2.78624 0.043046 3.35881 0.00773862L3.60001 0H20.4Z" fill="var(--fill-0, #C1C1C1)"/>
</g>
</svg>
