<svg preserveAspectRatio="none" width="100%" height="100%" overflow="visible" style="display: block;" viewBox="0 0 36.75 36.75" fill="none" xmlns="http://www.w3.org/2000/svg">
<path id="Vector" d="M32.375 17.5H29.75V10.5C29.75 8.575 28.175 7 26.25 7H19.25V4.375C19.25 1.96 17.29 0 14.875 0C12.46 0 10.5 1.96 10.5 4.375V7H3.5C1.575 7 0.0175 8.575 0.0175 10.5V17.15H2.625C5.2325 17.15 7.35 19.2675 7.35 21.875C7.35 24.4825 5.2325 26.6 2.625 26.6H0V33.25C0 35.175 1.575 36.75 3.5 36.75H10.15V34.125C10.15 31.5175 12.2675 29.4 14.875 29.4C17.4825 29.4 19.6 31.5175 19.6 34.125V36.75H26.25C28.175 36.75 29.75 35.175 29.75 33.25V26.25H32.375C34.79 26.25 36.75 24.29 36.75 21.875C36.75 19.46 34.79 17.5 32.375 17.5Z" fill="var(--fill-0, white)"/>
</svg>
