<svg preserveAspectRatio="none" width="100%" height="100%" overflow="visible" style="display: block;" viewBox="0 0 12.5 13.75" fill="none" xmlns="http://www.w3.org/2000/svg">
<path id="Vector" d="M11.25 1.25H10.625V0.625C10.625 0.28125 10.3437 0 10 0C9.65625 0 9.375 0.28125 9.375 0.625V1.25H3.125V0.625C3.125 0.28125 2.84375 0 2.5 0C2.15625 0 1.875 0.28125 1.875 0.625V1.25H1.25C0.5625 1.25 0 1.8125 0 2.5V12.5C0 13.1875 0.5625 13.75 1.25 13.75H11.25C11.9375 13.75 12.5 13.1875 12.5 12.5V2.5C12.5 1.8125 11.9375 1.25 11.25 1.25ZM10.625 12.5H1.875C1.53125 12.5 1.25 12.2188 1.25 11.875V4.375H11.25V11.875C11.25 12.2188 10.9687 12.5 10.625 12.5Z" fill="url(#paint0_linear_796_2211)"/>
<defs>
<linearGradient id="paint0_linear_796_2211" x1="-86.398" y1="0.135468" x2="-86.3793" y2="13.6149" gradientUnits="userSpaceOnUse">
<stop stop-color="#FC0162"/>
<stop offset="1" stop-color="#FC0139"/>
</linearGradient>
</defs>
</svg>
