<svg preserveAspectRatio="none" width="100%" height="100%" overflow="visible" style="display: block;" viewBox="0 0 5.61823 4.91847" fill="none" xmlns="http://www.w3.org/2000/svg">
<g id="Vector">
<path d="M0.552734 0.166016C1.31018 -0.265828 2.32313 0.193322 2.41113 0.972656V2.77344L2.4502 2.80859H4.50879C4.69375 2.82327 4.87301 2.87447 5.03223 2.95801C5.19165 3.04164 5.32758 3.15605 5.42969 3.29199C5.91993 3.95855 5.39611 4.84193 4.50879 4.91895H2.33301C0.0656906 4.92253 0.000635079 3.68134 0 3.66797V0.972656C0.0166904 0.810471 0.075156 0.653261 0.170898 0.513672C0.266745 0.374171 0.397022 0.255003 0.552734 0.166016Z" fill="url(#paint0_linear_783_2117)"/>
<path d="M0.552734 0.166016C1.31018 -0.265828 2.32313 0.193322 2.41113 0.972656V2.77344L2.4502 2.80859H4.50879C4.69375 2.82327 4.87301 2.87447 5.03223 2.95801C5.19165 3.04164 5.32758 3.15605 5.42969 3.29199C5.91993 3.95855 5.39611 4.84193 4.50879 4.91895H2.33301C0.0656906 4.92253 0.000635079 3.68134 0 3.66797V0.972656C0.0166904 0.810471 0.075156 0.653261 0.170898 0.513672C0.266745 0.374171 0.397022 0.255003 0.552734 0.166016Z" stroke="var(--stroke-0, black)"/>
</g>
<defs>
<linearGradient id="paint0_linear_783_2117" x1="4.20205" y1="0.797892" x2="-0.190573" y2="5.168" gradientUnits="userSpaceOnUse">
<stop stop-color="#FF4D01"/>
<stop offset="1" stop-color="#E000A1"/>
</linearGradient>
</defs>
</svg>
