<svg preserveAspectRatio="none" width="100%" height="100%" overflow="visible" style="display: block;" viewBox="0 0 27 28" fill="none" xmlns="http://www.w3.org/2000/svg">
<path id="linkedin" d="M0 2.00574C0 0.898298 0.887646 0 1.98267 0H25.0173C26.1123 0 27 0.898301 27 2.00575V25.9943C27 27.1021 26.1123 28 25.0173 28L1.98267 28C0.887646 28 0 27.1021 0 25.9943V2.00574ZM8.34195 23.4389V10.7953H4.28956V23.4389H8.34195ZM6.31573 9.06907C7.72889 9.06907 8.60846 8.09818 8.60846 6.88486C8.58212 5.64422 7.72889 4.70027 6.34254 4.70027C4.95634 4.70027 4.05 5.64422 4.05 6.88486C4.05 8.09818 4.92938 9.06907 6.28932 9.06907H6.31573ZM14.5992 23.4389V16.3782C14.5992 16.0003 14.6256 15.6228 14.7326 15.3527C15.0255 14.5977 15.6923 13.8157 16.8118 13.8157C18.2782 13.8157 18.8647 14.9752 18.8647 16.6749V23.4389H22.9168V16.1893C22.9168 12.3057 20.9176 10.4986 18.2514 10.4986C16.1017 10.4986 15.1379 11.7239 14.5993 12.5854V12.629H14.5723C14.5812 12.6146 14.5902 12.6 14.5993 12.5854V10.7953H10.547C10.6002 11.9817 10.547 23.4389 10.547 23.4389H14.5992Z" fill="var(--fill-0, #C1C1C1)"/>
</svg>
