<svg preserveAspectRatio="none" width="100%" height="100%" overflow="visible" style="display: block;" viewBox="0 0 8.75 12.1687" fill="none" xmlns="http://www.w3.org/2000/svg">
<path id="Vector" d="M4.375 0C1.95625 0 0 1.95625 0 4.375C0 6.98125 2.7625 10.575 3.9 11.9437C4.15 12.2437 4.60625 12.2437 4.85625 11.9437C5.9875 10.575 8.75 6.98125 8.75 4.375C8.75 1.95625 6.79375 0 4.375 0ZM4.375 5.9375C3.5125 5.9375 2.8125 5.2375 2.8125 4.375C2.8125 3.5125 3.5125 2.8125 4.375 2.8125C5.2375 2.8125 5.9375 3.5125 5.9375 4.375C5.9375 5.2375 5.2375 5.9375 4.375 5.9375Z" fill="url(#paint0_linear_796_2204)"/>
<defs>
<linearGradient id="paint0_linear_796_2204" x1="-60.4786" y1="0.119889" x2="-60.4577" y2="12.0491" gradientUnits="userSpaceOnUse">
<stop stop-color="#FC0162"/>
<stop offset="1" stop-color="#FC0139"/>
</linearGradient>
</defs>
</svg>
