<svg preserveAspectRatio="none" width="100%" height="100%" overflow="visible" style="display: block;" viewBox="0 0 1272 1492" fill="none" xmlns="http://www.w3.org/2000/svg">
<path id="Rectangle 63" opacity="0.2" d="M1005.78 926.351L1005.08 931.323L1009.65 929.232L1251.6 818.382L919.761 1489.21L125.777 1472.21L624.271 1212.23L624.912 1211.9L625.306 1211.29L752.306 1016.03L753.993 1013.44L751.218 1012.07L609.638 942.132L847.298 736.769L847.399 736.681L847.492 736.584L1064.24 508.782L1005.78 926.351ZM799.671 458.482L648.733 671.046L648.684 671.116L648.639 671.189L509.58 895.479L507.984 898.054L510.699 899.395L599.769 943.392L353.312 1156.36L4.54785 850.301L380.493 607.206L382.761 605.74L381.336 603.446L237.879 372.439L666.325 363.116L799.671 458.482ZM864.605 194.8L865.708 195.785L867.138 195.409L1267.6 90.209L1173.56 346.578L668.035 357.578L513.517 247.07L513.121 246.788L512.652 246.657L46.1123 117.199L650.152 2.9541L864.605 194.8Z" stroke="url(#paint0_linear_796_2206)" stroke-width="5.5"/>
<defs>
<linearGradient id="paint0_linear_796_2206" x1="-8791.86" y1="14.6995" x2="-8789.7" y2="1477.34" gradientUnits="userSpaceOnUse">
<stop stop-color="#FC0162"/>
<stop offset="1" stop-color="#FC0139"/>
</linearGradient>
</defs>
</svg>
