<svg preserveAspectRatio="none" width="100%" height="100%" overflow="visible" style="display: block;" viewBox="0 0 12.5 12.5" fill="none" xmlns="http://www.w3.org/2000/svg">
<path id="Vector" d="M6.24375 0C2.79375 0 0 2.8 0 6.25C0 9.7 2.79375 12.5 6.24375 12.5C9.7 12.5 12.5 9.7 12.5 6.25C12.5 2.8 9.7 0 6.24375 0ZM6.25 11.25C3.4875 11.25 1.25 9.0125 1.25 6.25C1.25 3.4875 3.4875 1.25 6.25 1.25C9.0125 1.25 11.25 3.4875 11.25 6.25C11.25 9.0125 9.0125 11.25 6.25 11.25ZM6.1125 3.125H6.075C5.825 3.125 5.625 3.325 5.625 3.575V6.525C5.625 6.74375 5.7375 6.95 5.93125 7.0625L8.525 8.61875C8.7375 8.74375 9.0125 8.68125 9.1375 8.46875C9.26875 8.25625 9.2 7.975 8.98125 7.85L6.5625 6.4125V3.575C6.5625 3.325 6.3625 3.125 6.1125 3.125V3.125Z" fill="url(#paint0_linear_796_2185)"/>
<defs>
<linearGradient id="paint0_linear_796_2185" x1="-86.398" y1="0.123153" x2="-86.3826" y2="12.3771" gradientUnits="userSpaceOnUse">
<stop stop-color="#FC0162"/>
<stop offset="1" stop-color="#FC0139"/>
</linearGradient>
</defs>
</svg>
